<?xml version="1.0" encoding="utf-8"?>
<svg id="master-artboard" viewBox="0 0 600 600" version="1.1" xmlns="http://www.w3.org/2000/svg" x="0px" y="0px" style="enable-background:new 0 0 1400 980;" width="600px" height="600px"><defs><clipPath id="clipPath18" clipPathUnits="userSpaceOnUse"><path id="path16" d="M 0,220.245 H 841.89 V 0 H 0 Z"/></clipPath><style id="ee-google-fonts">@import url(https://fonts.googleapis.com/css?family=Montserrat:400,700);</style><clipPath id="path-1" clipPathUnits="userSpaceOnUse"><path id="path-2" d="M 0,220.245 H 841.89 V 0 H 0 Z"/></clipPath></defs><rect id="ee-background" x="0" y="0" width="600" height="600" style="fill: white; fill-opacity: 0; pointer-events: none;"/><metadata id="metadata8"/><rect id="rect-1" x="0" y="0" width="600" height="600" style="fill: white; fill-opacity: 0; pointer-events: none;" transform="matrix(1, 0, 0, 1, -0.000025556555556249805, 0)"/><metadata id="metadata-1"/><g transform="matrix(1.3965179920196533, 0, 0, 1.3965179920196533, -301.3727672557743, 52.3872184753418)"><g transform="matrix(0.7126818895339966, 0, 0, -0.7126818895339966, 409.58969116210926, 250.92858886718747)" id="g60"><path id="path62" style="fill:#1d1d1b;fill-opacity:1;fill-rule:nonzero;stroke:none" d="m 0,0 c -1.646,3.634 -4.172,6.283 -8.45,7.232 v 2.115 c 2.662,0 11.501,-0.318 13.532,-0.318 1.872,0 10.433,0.318 13.161,0.318 V 7.285 c -2.42,-0.473 -5.201,-1.824 -5.201,-4.318 0,-1.761 1.095,-4.195 3.126,-8.755 l 19.395,-44.093 18.353,44.168 c 1.431,3.576 2.499,6.309 2.499,8.424 0,2.349 -2.172,3.942 -5.214,4.574 v 2.062 c 2.428,0 8.331,-0.318 10.207,-0.318 1.705,0 8.716,0.318 11.383,0.318 V 7.351 C 68.217,6.11 65.418,3.483 62.87,-2.481 L 35.89,-66.142 h -6.106 z"/></g><g transform="matrix(0.7126818895339966, 0, 0, -0.7126818895339966, 223.46453857421864, 296.339111328125)" id="g64"><path id="path66" style="fill:#1d1d1b;fill-opacity:1;fill-rule:nonzero;stroke:none" d="M 0,0 C 3.523,0.804 6,2.406 6,6.397 V 64.76 c 0,3.832 -2.305,5.422 -6,6.384 v 2.071 c 1.85,0 9.819,-0.314 11.757,-0.314 2.234,0 10.587,0.314 12.424,0.314 V 71.144 C 20.662,70.345 18.053,68.747 18.053,64.76 V 40.38 h 43.479 v 24.38 c 0,3.987 -2.318,5.585 -5.991,6.384 v 2.071 c 1.836,0 10.04,-0.314 12.269,-0.314 1.925,0 10.08,0.314 11.898,0.314 V 71.144 C 76.186,70.345 73.576,68.747 73.576,64.76 V 6.397 c 0,-3.832 2.45,-5.439 6.132,-6.397 v -1.911 c -1.818,0 -9.973,0.158 -11.898,0.158 -2.229,0 -10.433,-0.158 -12.269,-0.158 V 0 c 3.497,0.804 5.991,2.406 5.991,6.397 V 33.979 H 18.053 V 6.397 c 0,-3.991 2.446,-5.439 6.128,-6.397 v -1.911 c -1.837,0 -10.19,0.158 -12.424,0.158 C 9.819,-1.753 1.85,-1.911 0,-1.911 Z"/></g><g transform="matrix(0.7126818895339966, 0, 0, -0.7126818895339966, 581.8833618164062, 296.339111328125)" id="g68"><path id="path70" style="fill:#1d1d1b;fill-opacity:1;fill-rule:nonzero;stroke:none" d="M 0,0 C 4.512,0.804 6.998,2.596 6.998,6.715 V 64.76 c 0,4 -2.451,5.585 -6.812,6.384 v 2.071 c 2.511,0 10.688,-0.314 12.953,-0.314 3.656,0 13.854,0.799 21.793,0.799 26.746,0 42.984,-14.936 42.984,-37.647 0,-22.075 -16.896,-38.433 -44.473,-38.433 -7.951,0 -17.381,0.627 -21.072,0.627 C 10.128,-1.753 2.503,-2.07 0,-2.07 Z m 19.042,3.846 c 2.724,-0.495 7.757,-0.804 11.726,-0.804 22.468,0 34.164,13.523 34.164,32.384 0,19.554 -12.34,33.312 -33.347,33.312 -4.292,0 -9.655,-0.322 -12.543,-0.791 z"/></g><g transform="matrix(0.7126818895339966, 0, 0, -0.7126818895339966, 366.12371826171864, 291.4022216796875)" id="g72"><path id="path74" style="fill:#1d1d1b;fill-opacity:1;fill-rule:nonzero;stroke:none" d="m 0,0 c 0,-3.868 2.45,-5.969 6.958,-6.927 v -2.071 c -2.512,0 -10.693,0.318 -13.046,0.318 -1.987,0 -10.014,-0.318 -12.521,-0.318 v 2.071 c 4.185,0.803 6.653,2.887 6.653,6.927 v 57.629 c 0,3.546 -1.916,5.788 -6.645,6.588 v 2.071 c 2.513,0 10.442,-0.314 12.667,-0.314 3.678,0 14.107,0.613 18.221,0.613 17.987,0 28,-7.439 28,-20.163 0,-10.031 -7.47,-16.781 -18.935,-19.567 0,0 2.6,-1.515 5.217,-4.565 3.175,-3.731 11.935,-16.27 15.476,-20.565 3.54,-4.301 8.083,-9.104 12.94,-9.325 V -9.29 c -2.327,-0.502 -6.053,-0.931 -8.901,-0.931 -6.132,0 -11.002,2.146 -15.739,7.886 C 26.261,2.645 19.117,13.232 15.024,18.459 12.411,21.789 9.259,24.384 3.471,25.342 2.331,25.537 1.259,25.687 0,25.828 Z m 0,30.609 c 2.38,-0.313 5.898,-0.472 9.387,-0.472 14.066,0 18.485,8.097 18.485,15.25 0,10.158 -6.764,16.424 -19.086,16.424 C 6.247,61.811 2.548,61.488 0,61.02 Z"/></g><g transform="matrix(0.7126818895339966, 0, 0, -0.7126818895339966, 535.078857421875, 291.4022216796875)" id="g76"><path id="path78" style="fill:#1d1d1b;fill-opacity:1;fill-rule:nonzero;stroke:none" d="m 0,0 c 0,-3.868 2.459,-5.969 6.972,-6.927 v -2.071 c -2.508,0 -10.681,0.318 -13.034,0.318 -2.022,0 -10.022,-0.318 -12.539,-0.318 v 2.071 c 4.177,0.803 6.65,2.887 6.65,6.927 v 57.629 c 0,3.546 -1.934,5.788 -6.636,6.588 v 2.071 c 2.521,0 10.424,-0.314 12.667,-0.314 3.686,0 14.109,0.613 18.198,0.613 18.018,0 28,-7.439 28,-20.163 0,-10.031 -7.452,-16.781 -18.926,-19.567 0,0 2.613,-1.515 5.209,-4.565 C 29.766,18.561 38.525,6.022 42.053,1.727 45.607,-2.574 50.15,-7.377 54.98,-7.598 V -9.29 c -2.295,-0.502 -6.043,-0.931 -8.861,-0.931 -6.145,0 -11.037,2.146 -15.762,7.886 C 26.273,2.645 19.152,13.232 15.024,18.459 12.41,21.789 9.268,24.384 3.492,25.342 2.336,25.537 1.275,25.687 0,25.828 Z m 0,30.609 c 2.41,-0.313 5.907,-0.472 9.399,-0.472 14.072,0 18.478,8.097 18.478,15.25 0,10.158 -6.769,16.424 -19.068,16.424 C 6.247,61.811 2.565,61.488 0,61.02 Z"/></g><g transform="matrix(0.7126818895339966, 0, 0, -0.7126818895339966, 288.42401123046864, 296.329345703125)" id="g80"><path id="path82" style="fill:#1d1d1b;fill-opacity:1;fill-rule:nonzero;stroke:none" d="m 0,0 c 4.759,1.112 7.373,4.194 9.108,8.318 l 24.08,57.938 c 1.024,2.397 2.216,7.325 2.216,7.325 h 6.738 c 0,0 1.205,-4.941 2.207,-7.343 L 69.797,8.159 c 1.815,-4 3.779,-6.888 8.839,-8.159 l -0.013,-1.93 c -2.755,0 -11.32,0.159 -13.268,0.159 -1.938,0 -10.119,-0.159 -12.869,-0.159 L 52.495,0 c 3.704,0.909 4.874,2.794 4.874,4.618 0,1.549 -0.64,3.298 -1.417,5.112 L 50.481,22.208 H 22.441 L 17.431,9.66 C 16.87,8.238 16.203,6.229 16.203,4.874 16.203,2.781 17.298,1.112 21.501,0 l -0.009,-1.93 c -2.49,0 -9.064,0.159 -10.604,0.159 L -0.004,-1.93 Z M 47.943,28.124 35.969,56.022 24.817,28.124 Z"/></g><g transform="matrix(0.7126818895339966, 0, 0, -0.7126818895339966, 458.4390869140625, 296.329345703125)" id="g84"><path id="path86" style="fill:#1d1d1b;fill-opacity:1;fill-rule:nonzero;stroke:none" d="m 0,0 c 4.756,1.112 7.378,4.194 9.104,8.318 l 24.088,57.938 c 1.025,2.397 2.23,7.325 2.23,7.325 h 6.737 c 0,0 1.193,-4.941 2.191,-7.343 L 69.807,8.159 c 1.8,-4 3.783,-6.888 8.821,-8.159 l -0.009,-1.93 c -2.746,0 -11.32,0.159 -13.281,0.159 -1.92,0 -10.097,-0.159 -12.852,-0.159 V 0 c 3.727,0.909 4.879,2.794 4.879,4.618 0,1.549 -0.632,3.298 -1.395,5.112 L 50.478,22.208 H 22.437 L 17.422,9.66 C 16.861,8.238 16.199,6.229 16.199,4.874 16.199,2.781 17.294,1.112 21.497,0 v -1.93 c -2.499,0 -9.063,0.159 -10.613,0.159 L -0.009,-1.93 Z M 47.943,28.124 35.961,56.022 24.817,28.124 Z"/></g></g><g transform="matrix(1, 0, 0, 1, -46.25022888183594, -136.50061551290543)"><g transform="matrix(0.7126818895339966, 0, 0, -0.7126818895339966, 65.02500915527332, 227.46510314941403)" id="g88"><path id="path90" style="fill:#a81d28;fill-opacity:1;fill-rule:nonzero;stroke:none" d="m 0,0 h 167.895 v -63.422 c 0,-29.059 -10.817,-90.684 -83.321,-136.548 0,0 -78.561,32.809 -84.574,136.548 z"/></g><g transform="matrix(0.7126818895339966, 0, 0, -0.7126818895339966, 64.77970886230457, 227.3453674316406)" id="g92"><path id="path94" style="fill:none;stroke:#12110c;stroke-width:0.23;stroke-linecap:butt;stroke-linejoin:miter;stroke-miterlimit:4;stroke-dasharray:none;stroke-opacity:1" d="m 0,0 h 168.058 v -63.466 c 0,-29.069 -10.83,-90.728 -83.4,-136.623 0,0 -78.636,32.83 -84.658,136.623 z"/></g><g transform="matrix(0.7126818895339966, 0, 0, -0.7126818895339966, 155.59098815917957, 285.5466003417969)" id="g96"><path id="path98" style="fill:#ffffff;fill-opacity:1;fill-rule:nonzero;stroke:none" d="m 0,0 c 0,0 -1.497,-4.772 -8.154,0.133 l -22.857,0.552 c 0,0 -2.993,-0.963 -3.4,2.168 0,0 0.548,6.255 0.27,6.803 0,0 0.137,1.766 -2.866,1.766 0,0 -4.618,-0.543 -4.755,3.545 0,0 -0.807,4.353 5.581,4.208 0,0 2.04,-0.949 2.177,1.642 0,0 -0.269,17.691 -0.137,19.042 0,0 0.547,1.625 -2.588,1.903 0,0 -4.485,-0.949 -5.033,2.035 0,0 -0.269,4.49 2.729,4.768 0,0 3.669,-0.278 4.348,0.68 0,0 0.822,-0.538 0.681,2.711 l 0.141,5.59 c 0,0 0.393,1.492 2.711,1.346 0,0 4.22,-0.269 4.772,0.146 0,0 0.941,1.218 1.219,1.771 0,0 2.181,0.132 2.583,-0.415 0,0 3.267,-2.177 15.646,-1.356 0,0 1.908,0 2.305,-0.548 0,0 2.322,-1.765 3.678,0.133 0,0 2.04,0.415 8.159,0.269 0,0 6.675,-1.761 11.289,2.049 L 20,60.667 c 0,0 1.903,-3.121 3.263,-2.177 0,0 4.084,0.402 4.759,-0.41 0,0 1.356,-2.027 0.68,-7.351 0,0 -0.807,-2.305 3.135,-2.305 0,0 4.495,0.821 3.942,-3.395 0,0 1.223,-4.764 -6.251,-4.088 0,0 -0.958,-1.36 -0.826,-2.314 0,0 -0.132,-15.501 -0.269,-17.28 0,0 -0.133,-2.451 3.126,-2.309 0,0 4.358,0.282 4.503,-3.669 0,0 0.539,-5.17 -5.726,-4.212 0,0 -1.903,-0.278 -2.186,-1.501 L 27.895,2.853 c 0,0 0.127,-3.4 -3.674,-2.579 -0.543,0 -21.219,-0.42 -22.993,0.123 C 1.228,0.397 0.265,0.534 0,0"/></g><g transform="matrix(0.7126818895339966, 0, 0, -0.7126818895339966, 124.27404022216786, 301.7510681152344)" id="g100"><path id="path102" style="fill:#ffffff;fill-opacity:1;fill-rule:nonzero;stroke:none" d="m 0,0 c 0,0 0.954,0.402 1.223,1.073 0,0 2.861,0.279 3.262,0.684 L 13.47,1.073 c 0,0 8.839,-0.671 12.649,2.062 0,0 1.369,0 2.322,-0.415 0,0 1.894,-0.415 2.437,-1.219 l 5.175,0.137 c 0,0 2.993,-0.962 2.715,-2.869 v -2.442 c 0,0 -0.547,-4.901 0.813,-5.179 h 3.955 c 0,0 3.268,-1.493 2.857,-3.395 0,0 0.137,-2.711 -2.715,-3.263 0,0 -2.87,-0.812 -3.811,-0.684 0,0 -0.958,-1.219 -1.099,-2.715 l -0.397,-17.824 c 0,0 -0.278,-1.903 2.583,-1.633 0,0 4.207,0.41 5.439,-1.912 0,0 1.09,-3.938 -1.086,-4.618 l -1.629,-0.808 -3.546,-0.566 c 0,0 -1.487,-0.123 -1.629,-2.706 v -4.754 c 0,0 0.142,-3.277 -2.45,-3.277 l -3.81,-0.273 c 0,0 -0.95,-0.804 -2.852,-0.261 0,0 -23.131,-0.419 -23.948,-0.142 L 2.72,-58.234 c 0,0 -2.99,-2.72 -5.44,-0.671 l -1.903,1.497 c 0,0 -1.364,-0.275 -1.898,-0.133 -0.547,0.133 -25.581,-0.278 -25.581,-0.278 0,0 -5.307,-0.552 -5.709,1.227 0,0 -0.679,6.932 -0.41,7.762 0,0 0,2.031 -1.223,2.163 0,0 -5.307,0.274 -5.444,0.826 0,0 -2.861,2.03 -2.044,4.067 0,0 0.958,2.732 3.81,3.002 0,0 4.353,-0.689 4.353,0.538 0,0 0.279,0.817 0.279,2.172 0,0 0.269,16.199 0.132,17.285 0,0 0.406,2.04 -1.364,2.04 0,0 -1.903,-0.539 -3.122,0.273 0,0 -3.267,-0.137 -3.947,2.451 0,0 -0.547,1.629 0.265,3.002 0,0 1.502,2.989 5.855,2.032 0,0 2.45,-0.685 2.719,1.077 l -0.128,6.543 c 0,0 -0.552,1.761 2.852,2.711 0,0 4.353,-1.219 5.709,0.953 0,0 1.501,3.003 2.711,0.962 0,0 2.596,-2.455 9.669,-2.194 0,0 12.247,0.962 12.516,0.428 0,0 2.994,-0.428 3.806,-1.368 z"/></g><g transform="matrix(0.7126818895339966, 0, 0, -0.7126818895339966, 97.91556549072254, 285.5466003417969)" id="g104"><path id="path106" style="fill:#ffffff;fill-opacity:1;fill-rule:nonzero;stroke:none" d="M 0,0 C 0,0 -1.501,-4.772 -8.167,0.137 L -31.02,0.685 c 0,0 -2.993,-0.963 -3.404,2.171 0,0 0.548,6.252 0.265,6.8 0,0 0.146,1.775 -2.852,1.775 0,0 -4.618,-0.556 -4.751,3.527 0,0 -0.821,4.367 5.572,4.217 0,0 2.031,-0.949 2.177,1.637 0,0 -0.274,17.683 -0.146,19.051 0,0 0.556,1.616 -2.574,1.895 0,0 -4.495,-0.945 -5.029,2.048 0,0 -0.278,4.481 2.711,4.759 0,0 3.674,-0.278 4.358,0.663 0,0 0.817,-0.526 0.68,2.742 l 0.137,5.571 c 0,0 0.41,1.497 2.71,1.36 0,0 4.23,-0.269 4.777,0.137 0,0 0.95,1.218 1.21,1.771 0,0 2.19,0.128 2.596,-0.402 0,0 3.258,-2.19 15.651,-1.369 0,0 1.894,0 2.305,-0.548 0,0 2.309,-1.765 3.669,0.142 0,0 2.04,0.406 8.167,0.269 0,0 6.654,-1.766 11.286,2.036 l 1.492,-0.279 c 0,0 1.903,-3.117 3.276,-2.168 0,0 4.075,0.411 4.759,-0.41 0,0 1.364,-2.04 0.671,-7.351 0,0 -0.808,-2.309 3.135,-2.309 0,0 4.485,0.808 3.947,-3.391 0,0 1.227,-4.764 -6.256,-4.088 0,0 -0.958,-1.364 -0.826,-2.314 0,0 -0.132,-15.501 -0.265,-17.28 0,0 -0.132,-2.433 3.131,-2.309 0,0 4.353,0.287 4.485,-3.674 0,0 0.543,-5.165 -5.709,-4.207 0,0 -1.907,-0.282 -2.185,-1.501 l -0.265,-6.8 c 0,0 0.137,-3.403 -3.682,-2.591 C 23.66,0.265 2.994,-0.137 1.218,0.397 1.218,0.397 0.269,0.534 0,0"/></g><g transform="matrix(0.7126818895339966, 0, 0, -0.7126818895339966, 155.59098815917957, 285.5466003417969)" id="g108"><path id="path110" style="fill:#12110c;fill-opacity:1;fill-rule:nonzero;stroke:none" d="m 0,0 c 0,0 -1.497,-4.772 -8.154,0.133 l -22.857,0.552 c 0,0 -2.993,-0.963 -3.4,2.168 0,0 0.548,6.255 0.27,6.803 0,0 0.137,1.766 -2.866,1.766 0,0 -4.618,-0.543 -4.755,3.545 0,0 -0.807,4.353 5.581,4.208 0,0 2.04,-0.949 2.177,1.642 0,0 -0.269,17.691 -0.137,19.042 0,0 0.547,1.625 -2.588,1.903 0,0 -4.485,-0.949 -5.033,2.035 0,0 -0.269,4.49 2.729,4.768 0,0 3.669,-0.278 4.348,0.68 0,0 0.822,-0.538 0.681,2.711 l 0.141,5.59 c 0,0 0.393,1.492 2.711,1.346 0,0 4.22,-0.269 4.772,0.146 0,0 0.941,1.218 1.219,1.771 0,0 2.181,0.132 2.583,-0.415 0,0 3.267,-2.177 15.646,-1.356 0,0 1.908,0 2.305,-0.548 0,0 2.322,-1.765 3.678,0.133 0,0 2.04,0.415 8.159,0.269 0,0 6.675,-1.761 11.289,2.049 L 20,60.667 c 0,0 1.903,-3.121 3.263,-2.177 0,0 4.084,0.402 4.759,-0.41 0,0 1.356,-2.027 0.68,-7.351 0,0 -0.807,-2.305 3.135,-2.305 0,0 4.495,0.821 3.942,-3.395 0,0 1.223,-4.764 -6.251,-4.088 0,0 -0.958,-1.36 -0.826,-2.314 0,0 -0.132,-15.501 -0.269,-17.28 0,0 -0.133,-2.451 3.126,-2.309 0,0 4.358,0.282 4.503,-3.669 0,0 0.539,-5.17 -5.726,-4.212 0,0 -1.903,-0.278 -2.186,-1.501 L 27.895,2.853 c 0,0 0.127,-3.4 -3.674,-2.579 -0.543,0 -21.219,-0.42 -22.993,0.123 C 1.228,0.397 0.265,0.534 0,0"/></g><g transform="matrix(0.7126818895339966, 0, 0, -0.7126818895339966, 155.59098815917957, 285.5494079589844)" id="g112"><path id="path114" style="fill:none;stroke:#12110c;stroke-width:0.01;stroke-linecap:butt;stroke-linejoin:miter;stroke-miterlimit:4;stroke-dasharray:none;stroke-opacity:1" d="m 0,0 c 0,0 -1.497,-4.773 -8.154,0.132 l -22.862,0.552 c 0,0 -2.993,-0.962 -3.399,2.172 0,0 0.552,6.256 0.269,6.804 0,0 0.137,1.766 -2.861,1.766 0,0 -4.622,-0.548 -4.759,3.541 0,0 -0.808,4.353 5.58,4.212 0,0 2.04,-0.95 2.177,1.637 0,0 -0.269,17.692 -0.137,19.047 0,0 0.552,1.629 -2.583,1.903 0,0 -4.49,-0.95 -5.037,2.035 0,0 -0.265,4.495 2.728,4.768 0,0 3.669,-0.273 4.35,0.68 0,0 0.825,-0.538 0.679,2.716 l 0.146,5.589 c 0,0 0.388,1.492 2.715,1.346 0,0 4.216,-0.269 4.764,0.146 0,0 0.941,1.214 1.223,1.767 0,0 2.177,0.136 2.583,-0.412 0,0 3.263,-2.176 15.646,-1.355 0,0 1.908,0 2.305,-0.547 0,0 2.322,-1.766 3.678,0.132 0,0 2.04,0.415 8.159,0.269 0,0 6.675,-1.761 11.293,2.049 l 1.502,-0.269 c 0,0 1.902,-3.126 3.258,-2.181 0,0 4.084,0.401 4.759,-0.406 0,0 1.36,-2.036 0.685,-7.351 0,0 -0.812,-2.314 3.134,-2.314 0,0 4.491,0.821 3.938,-3.391 0,0 1.223,-4.768 -6.251,-4.088 0,0 -0.954,-1.36 -0.821,-2.318 0,0 -0.133,-15.501 -0.27,-17.276 0,0 -0.137,-2.45 3.126,-2.318 0,0 4.362,0.283 4.503,-3.664 0,0 0.535,-5.17 -5.726,-4.212 0,0 -1.903,-0.283 -2.185,-1.501 l -0.26,-6.804 c 0,0 0.127,-3.404 -3.669,-2.583 C 23.683,0.273 3.002,-0.142 1.228,0.401 1.228,0.401 0.265,0.534 0,0 Z"/></g><g transform="matrix(0.7126818895339966, 0, 0, -0.7126818895339966, 137.26901245117176, 245.60157775878903)" id="g116"><path id="path118" style="fill:#ffffff;fill-opacity:1;fill-rule:nonzero;stroke:none" d="m 0,0 c 0,0 0.269,-2.724 0.269,-3.413 0,-0.675 -0.401,-39.307 -0.401,-39.307 0,0 0.401,-2.993 -2.173,-4.494 0,0 -0.689,-0.265 -0.817,1.638 l 0.266,40.799 c 0,0 0.273,5.047 2.856,4.777"/></g><g transform="matrix(0.7126818895339966, 0, 0, -0.7126818895339966, 137.27214050292957, 245.59843444824216)" id="g120"><path id="path122" style="fill:none;stroke:#12110c;stroke-width:0.012;stroke-linecap:butt;stroke-linejoin:miter;stroke-miterlimit:4;stroke-dasharray:none;stroke-opacity:1" d="m 0,0 c 0,0 0.265,-2.724 0.265,-3.413 0,-0.679 -0.397,-39.316 -0.397,-39.316 0,0 0.397,-2.993 -2.177,-4.489 0,0 -0.689,-0.27 -0.826,1.633 l 0.274,40.808 c 0,0 0.269,5.047 2.861,4.777 z"/></g><g transform="matrix(0.7126818895339966, 0, 0, -0.7126818895339966, 134.07199096679676, 279.5367736816406)" id="g124"><path id="path126" style="fill:#ffffff;fill-opacity:1;fill-rule:nonzero;stroke:none" d="M 0,0 C 0,0 0.27,38.362 0.142,39.042 0,39.713 0.27,38.486 0.27,38.486 c 0,0 -0.407,6.676 1.364,9.404 0,0 -0.552,2.3 -3.678,-0.552 l -0.137,-5.571 c 0,0 0,-3.135 -2.852,-2.998 0,0 -3.267,0.141 -4.764,-1.356 0,0 -0.816,-2.997 2.309,-2.459 0,0 4.901,0 5.175,-2.026 L -2.587,12.38 c 0,0 1.09,-3.417 -2.715,-3.417 0,0 -4.64,0.291 -4.495,-2.566 0,0 0.958,-2.445 4.901,-1.637 0,0 2.852,-0.534 2.715,-3.267 v -5.166 c 0,0 -0.274,-2.053 2.451,-2.181 h 21.222 c 0,0 1.082,-0.132 1.082,1.228 0,0 -0.132,1.085 -1.762,1.085 L 3.13,-3.267 C 3.13,-3.267 0.27,-4.225 0,0"/></g><g transform="matrix(0.7126818895339966, 0, 0, -0.7126818895339966, 136.98258972167957, 279.49261474609375)" id="g128"><path id="path130" style="fill:#ffffff;fill-opacity:1;fill-rule:nonzero;stroke:none" d="m 0,0 c 0,0 -0.547,-1.903 1.492,-1.505 h 14.014 l 3.801,-0.826 c 0,0 3.943,0.962 0,3.135 0,0 -12.512,-0.124 -13.598,0.141 0,0 -2.587,0.676 -3.144,0.812 C 2.565,1.757 1.219,2.3 0,0"/></g><g transform="matrix(0.7126818895339966, 0, 0, -0.7126818895339966, 136.9794464111327, 279.49261474609375)" id="g132"><path id="path134" style="fill:none;stroke:#12110c;stroke-width:0.012;stroke-linecap:butt;stroke-linejoin:miter;stroke-miterlimit:4;stroke-dasharray:none;stroke-opacity:1" d="M 0,0 C 0,0 -0.547,-1.907 1.492,-1.51 H 15.51 l 3.802,-0.825 c 0,0 3.946,0.966 0,3.143 0,0 -12.513,-0.123 -13.604,0.137 0,0 -2.586,0.68 -3.138,0.817 C 2.57,1.762 1.219,2.305 0,0 Z"/></g><g transform="matrix(0.7126818895339966, 0, 0, -0.7126818895339966, 153.555206298828, 280.8518981933594)" id="g136"><path id="path138" style="fill:#ffffff;fill-opacity:1;fill-rule:nonzero;stroke:none" d="m 0,0 c 0,0 -2.583,0 -2.45,-3.408 0,0 0.273,-2.574 2.993,-2.574 0,0 2.441,0.401 2.181,3.121 0,0 -1.501,3.4 -2.724,2.861"/></g><g transform="matrix(0.7126818895339966, 0, 0, -0.7126818895339966, 154.91444396972645, 279.8858642578125)" id="g140"><path id="path142" style="fill:#ffffff;fill-opacity:1;fill-rule:nonzero;stroke:none" d="m 0,0 c 0,0 1.223,1.355 2.044,1.355 0,0 13.603,-1.218 15.899,0.411 0,0 2.053,0.406 2.6,0 0,0 2.036,-1.629 2.036,-2.583 0,0 -0.133,-1.231 -2.583,-0.534 0,0 -15.373,-0.15 -16.19,-0.15 0,0 -4.225,-0.945 -3.806,1.501"/></g><g transform="matrix(0.7126818895339966, 0, 0, -0.7126818895339966, 154.91130065917957, 279.8858642578125)" id="g144"><path id="path146" style="fill:none;stroke:#12110c;stroke-width:0.012;stroke-linecap:butt;stroke-linejoin:miter;stroke-miterlimit:4;stroke-dasharray:none;stroke-opacity:1" d="m 0,0 c 0,0 1.223,1.36 2.044,1.36 0,0 13.607,-1.219 15.908,0.411 0,0 2.052,0.406 2.6,0 0,0 2.035,-1.63 2.035,-2.592 0,0 -0.132,-1.232 -2.583,-0.534 0,0 -15.381,-0.15 -16.198,-0.15 0,0 -4.225,-0.945 -3.806,1.505 z"/></g><g transform="matrix(0.7126818895339966, 0, 0, -0.7126818895339966, 156.17311096191395, 283.0292053222656)" id="g148"><path id="path150" style="fill:#ffffff;fill-opacity:1;fill-rule:nonzero;stroke:none" d="m 0,0 c 0,0 0,1.1 1.907,1.1 l 19.038,0.132 c 0,0 1.775,-0.954 1.775,2.305 0,0 0.697,14.829 0.759,31.156 0.022,4.861 0.243,9.96 0.071,14.685 0,0 -0.424,2.044 -0.971,2.459 0,0 0,2.172 2.317,1.355 0,0 2.04,-0.137 1.497,-3.276 l 0.141,-4.741 c 0,0 -0.41,-2.053 3.254,-1.502 0,0 3.669,-0.551 3.815,-1.902 0,0 1.086,-2.733 -3.259,-2.455 h -3.143 c 0,0 -1.355,-0.813 -0.949,-2.451 l -0.406,-19.73 c 0,0 -0.274,-3.395 2.993,-3.267 0,0 3.395,0.141 4.079,-0.95 0,0 2.327,-3.399 -2.715,-3.126 0,0 -3.13,0.142 -3.81,-0.41 0,0 -0.547,-0.675 -0.954,-7.077 0,0 0.278,-3.81 -2.583,-3.391 0,0 -18.913,-0.269 -20.679,0.132 0,0 -1.903,-0.551 -2.177,0.954"/></g><g transform="matrix(0.7126818895339966, 0, 0, -0.7126818895339966, 138.7256622314452, 244.7204895019531)" id="g152"><path id="path154" style="fill:#ffffff;fill-opacity:1;fill-rule:nonzero;stroke:none" d="m 0,0 -0.411,-43.682 c 0,0 -0.132,-2.027 3.268,-2.437 0,0 3.942,-0.406 4.887,0 0,0 2.601,0.141 9.254,-0.137 0,0 1.642,-1.647 1.779,0.41 0,0 1.077,35.356 0.548,42.72 0,0 -0.15,3.126 -2.455,3.263 0,0 -10.34,-0.835 -11.293,0 L 1.493,1.214 C 1.493,1.214 -0.141,1.082 0,0"/></g><g transform="matrix(0.7126818895339966, 0, 0, -0.7126818895339966, 154.03997802734364, 246.27812194824216)" id="g156"><path id="path158" style="fill:#ffffff;fill-opacity:1;fill-rule:nonzero;stroke:none" d="m 0,0 c 0,0 -0.406,-20.543 -0.27,-21.223 l -0.269,-17.272 -0.552,-5.991 c 0,0 0.821,-1.222 1.502,-0.41 0,0 4.353,1.104 7.072,0.675 0,0 8.716,-0.808 10.477,0.561 0,0 1.364,-0.68 1.762,1.497 0,0 0.538,38.079 0.287,38.759 0,0 0.525,5.457 0.251,5.987 0,0 -0.119,1.223 -2.437,0.141 0,0 0.265,-1.095 -12.649,-0.671 C 5.174,2.053 0.278,2.186 0,0"/></g><g transform="matrix(0.7126818895339966, 0, 0, -0.7126818895339966, 169.46078491210926, 245.8942718505859)" id="g160"><path id="path162" style="fill:#ffffff;fill-opacity:1;fill-rule:nonzero;stroke:none" d="m 0,0 -0.132,-42.98 c 0,0 1.086,-3.823 2.852,-3.422 0,0 0.265,0.826 0.397,2.186 L 3.669,-3.263 C 3.669,-3.263 2.3,3.254 0,0"/></g><g transform="matrix(0.7126818895339966, 0, 0, -0.7126818895339966, 169.4576416015624, 245.8911437988281)" id="g164"><path id="path166" style="fill:none;stroke:#12110c;stroke-width:0.012;stroke-linecap:butt;stroke-linejoin:miter;stroke-miterlimit:4;stroke-dasharray:none;stroke-opacity:1" d="m 0,0 -0.132,-42.989 c 0,0 1.09,-3.824 2.856,-3.422 0,0 0.27,0.826 0.402,2.186 L 3.673,-3.263 C 3.673,-3.263 2.305,3.254 0,0 Z"/></g><g transform="matrix(0.7126818895339966, 0, 0, -0.7126818895339966, 157.55429077148426, 255.06620788574216)" id="g168"><path id="path170" style="fill:#12110c;fill-opacity:1;fill-rule:nonzero;stroke:none" d="M 0,0 C -0.406,1.086 2.313,1.223 2.313,1.223 L 3.678,0.954 C 4.632,1.086 5.585,0.676 5.585,0.676 6.535,-0.817 4.901,-1.629 4.901,-1.629 L 4.358,-3.404 c -0.141,-1.501 0,-14.424 0,-14.424 0.274,-0.671 1.36,-1.89 1.36,-1.89 0,-1.231 -1.501,-0.962 -1.501,-0.962 l -3.939,-0.137 c -1.227,0.137 -0.821,1.502 -0.821,1.502 1.36,0.679 1.771,3.134 1.771,3.134 V -2.72 Z"/></g><g transform="matrix(0.7126818895339966, 0, 0, -0.7126818895339966, 144.4681701660155, 264.083984375)" id="g172"><path id="path174" style="fill:#12110c;fill-opacity:1;fill-rule:nonzero;stroke:none" d="M 0,0 -0.269,-4.216 0.945,-6.252 C 1.771,-7.338 0.406,-8.164 0.406,-8.164 l -4.353,0.407 c -0.808,0.419 0,1.775 0,1.775 1.091,0.67 1.227,2.45 1.227,2.45 l -0.136,7.889 0.136,5.713 c 0,0.685 -1.086,1.899 -1.086,1.899 -0.949,0.137 -0.68,1.36 -0.68,1.36 0.27,0.684 2.574,0.278 2.574,0.278 H 3.81 C 9.254,11.836 8.437,7.89 8.437,7.89 8.848,3.951 4.631,2.309 4.631,2.309 L 4.349,0.132 8.3,-6.115 c 0.68,-0.547 0.548,-1.099 0.548,-1.099 -0.548,-1.497 -2.729,0 -2.729,0 L 1.228,0.41 C 0.817,0.958 0,0 0,0 M 0.137,10.755 C 0.269,7.753 0.269,3.673 0.269,3.673 c 2.592,-2.044 4.08,0.821 4.08,0.821 3.395,3.259 0,6.261 -0.539,7.069 -0.552,0.821 -3.271,0.141 -3.271,0.141 z"/></g><g transform="matrix(0.7126818895339966, 0, 0, -0.7126818895339966, 124.27404022216786, 301.7510681152344)" id="g176"><path id="path178" style="fill:#12110c;fill-opacity:1;fill-rule:nonzero;stroke:none" d="m 0,0 c 0,0 0.954,0.402 1.223,1.073 0,0 2.861,0.279 3.262,0.684 L 13.47,1.073 c 0,0 8.839,-0.671 12.649,2.062 0,0 1.369,0 2.322,-0.415 0,0 1.894,-0.415 2.437,-1.219 l 5.175,0.137 c 0,0 2.993,-0.962 2.715,-2.869 v -2.442 c 0,0 -0.547,-4.901 0.813,-5.179 h 3.955 c 0,0 3.268,-1.493 2.857,-3.395 0,0 0.137,-2.711 -2.715,-3.263 0,0 -2.87,-0.812 -3.811,-0.684 0,0 -0.958,-1.219 -1.099,-2.715 l -0.397,-17.824 c 0,0 -0.278,-1.903 2.583,-1.633 0,0 4.207,0.41 5.439,-1.912 0,0 1.09,-3.938 -1.086,-4.618 l -1.629,-0.808 -3.546,-0.566 c 0,0 -1.487,-0.123 -1.629,-2.706 v -4.754 c 0,0 0.142,-3.277 -2.45,-3.277 l -3.81,-0.273 c 0,0 -0.95,-0.804 -2.852,-0.261 0,0 -23.131,-0.419 -23.948,-0.142 L 2.72,-58.234 c 0,0 -2.99,-2.72 -5.44,-0.671 l -1.903,1.497 c 0,0 -1.364,-0.275 -1.898,-0.133 -0.547,0.133 -25.581,-0.278 -25.581,-0.278 0,0 -5.307,-0.552 -5.709,1.227 0,0 -0.679,6.932 -0.41,7.762 0,0 0,2.031 -1.223,2.163 0,0 -5.307,0.274 -5.444,0.826 0,0 -2.861,2.03 -2.044,4.067 0,0 0.958,2.732 3.81,3.002 0,0 4.353,-0.689 4.353,0.538 0,0 0.279,0.817 0.279,2.172 0,0 0.269,16.199 0.132,17.285 0,0 0.406,2.04 -1.364,2.04 0,0 -1.903,-0.539 -3.122,0.273 0,0 -3.267,-0.137 -3.947,2.451 0,0 -0.547,1.629 0.265,3.002 0,0 1.502,2.989 5.855,2.032 0,0 2.45,-0.685 2.719,1.077 l -0.128,6.543 c 0,0 -0.552,1.761 2.852,2.711 0,0 4.353,-1.219 5.709,0.953 0,0 1.501,3.003 2.711,0.962 0,0 2.596,-2.455 9.669,-2.194 0,0 12.247,0.962 12.516,0.428 0,0 2.994,-0.428 3.806,-1.368 z"/></g><g transform="matrix(0.7126818895339966, 0, 0, -0.7126818895339966, 124.27404022216786, 301.63134765625)" id="g180"><path id="path182" style="fill:none;stroke:#12110c;stroke-width:0.01;stroke-linecap:butt;stroke-linejoin:miter;stroke-miterlimit:4;stroke-dasharray:none;stroke-opacity:1" d="m 0,0 c 0,0 0.944,0.397 1.223,1.077 0,0 2.856,0.278 3.262,0.685 l 8.981,-0.685 c 0,0 8.843,-0.68 12.653,2.053 0,0 1.369,0 2.322,-0.415 0,0 1.899,-0.41 2.433,-1.214 l 5.183,0.133 c 0,0 2.989,-0.963 2.711,-2.865 v -2.447 c 0,0 -0.543,-4.9 0.817,-5.17 h 3.951 c 0,0 3.263,-1.501 2.861,-3.404 0,0 0.137,-2.711 -2.719,-3.263 0,0 -2.865,-0.812 -3.806,-0.679 0,0 -0.958,-1.223 -1.104,-2.72 l -0.402,-17.828 c 0,0 -0.273,-1.894 2.583,-1.629 0,0 4.212,0.401 5.448,-1.907 0,0 1.091,-3.943 -1.086,-4.627 l -1.633,-0.813 -3.546,-0.552 c 0,0 -1.492,-0.132 -1.624,-2.706 v -4.773 c 0,0 0.132,-3.262 -2.451,-3.262 l -3.81,-0.274 c 0,0 -0.954,-0.813 -2.856,-0.27 0,0 -23.131,-0.41 -23.948,-0.128 l -2.728,-0.551 c 0,0 -2.985,-2.724 -5.435,-0.671 l -1.907,1.497 c 0,0 -1.36,-0.275 -1.898,-0.147 -0.548,0.147 -25.577,-0.273 -25.577,-0.273 0,0 -5.311,-0.548 -5.717,1.227 0,0 -0.676,6.941 -0.407,7.762 0,0 0,2.031 -1.227,2.168 0,0 -5.302,0.269 -5.443,0.817 0,0 -2.857,2.043 -2.041,4.079 0,0 0.958,2.728 3.815,3.003 0,0 4.349,-0.699 4.349,0.543 0,0 0.278,0.812 0.278,2.163 0,0 0.269,16.198 0.137,17.285 0,0 0.406,2.048 -1.369,2.048 0,0 -1.902,-0.543 -3.126,0.265 0,0 -3.262,-0.133 -3.942,2.45 0,0 -0.552,1.629 0.269,2.998 0,0 1.493,2.994 5.85,2.04 0,0 2.45,-0.689 2.724,1.077 l -0.137,6.539 c 0,0 -0.547,1.761 2.857,2.719 0,0 4.353,-1.227 5.713,0.95 0,0 1.492,2.997 2.711,0.966 0,0 2.596,-2.455 9.664,-2.194 0,0 12.252,0.963 12.517,0.424 0,0 2.998,-0.424 3.81,-1.373 z"/></g><g transform="matrix(0.7126818895339966, 0, 0, -0.7126818895339966, 126.79415893554676, 339.8551940917969)" id="g184"><path id="path186" style="fill:#ffffff;fill-opacity:1;fill-rule:nonzero;stroke:none" d="m 0,0 c 0,0 1.638,0.826 2.729,0.543 1.09,-0.27 17.002,0.133 17.002,0.133 0,0 6.936,-0.539 8.031,0.424 l 1.62,0.538 c 0,0 0.684,0.812 0.684,1.894 0,1.099 0.137,4.773 0.137,4.773 l 0.415,1.35 c 0,0 -0.141,1.361 0,37.692 0,0 0.534,2.843 -1.236,4.622 0,0 0,1.078 0.543,0.949 0.552,-0.146 0.278,-0.146 0.278,-0.146 0,0 2.446,0.694 2.848,-0.259 0,0 1.099,-3.254 0.141,-5.166 0,0 -0.274,-3.951 1.784,-3.951 0,0 0.803,-0.822 2.437,-0.407 0,0 3.536,-0.415 3.536,-1.492 0,0 0,-2.459 -2.45,-2.049 l -3.271,-0.264 c 0,0 -2.177,-0.42 -1.899,-2.995 C 33.607,33.603 33.192,15.1 33.192,15.1 c 0,0 0,-2.186 3.409,-2.049 0,0 4.212,0.141 4.212,-1.077 0,0 1.085,-2.72 -1.903,-2.862 0,0 -5.718,0.142 -5.303,-1.487 0,0 -0.415,-3.819 -0.689,-4.49 0,0 0.557,-3.135 -0.136,-3.683 0,0 -0.402,-1.761 -4.071,-1.492 0,0 -23.395,0.133 -27.073,-0.137 0,0 -2.181,0.27 -1.638,2.177"/></g><g transform="matrix(0.7126818895339966, 0, 0, -0.7126818895339966, 123.79554748535145, 338.01434326171875)" id="g188"><path id="path190" style="fill:#ffffff;fill-opacity:1;fill-rule:nonzero;stroke:none" d="m 0,0 c 0,0 2.309,-0.402 2.309,-2.583 0,-2.172 0.137,-3.399 -1.231,-3.669 -1.356,-0.273 -2.848,0.128 -3.25,1.895 C -2.591,-2.583 -1.912,-0.402 0,0"/></g><g transform="matrix(0.7126818895339966, 0, 0, -0.7126818895339966, 125.73069000244129, 337.2403564453125)" id="g192"><path id="path194" style="fill:#ffffff;fill-opacity:1;fill-rule:nonzero;stroke:none" d="m 0,0 c 0,0 2.446,1.643 3.399,1.359 0,0 12.376,-0.807 16.195,-0.14 3.805,0.684 1.492,0.14 1.492,0.14 0,0 3.268,0 4.212,1.233 0,0 0.958,0.261 1.501,-0.689 l 2.031,-2.185 c 0,0 0.154,-1.347 -2.168,-1.21 0,0 -22.181,0 -22.852,-0.137 0,0 -4.216,-0.671 -3.81,1.629"/></g><g transform="matrix(0.7126818895339966, 0, 0, -0.7126818895339966, 125.72755432128895, 337.2403564453125)" id="g196"><path id="path198" style="fill:none;stroke:#12110c;stroke-width:0.012;stroke-linecap:butt;stroke-linejoin:miter;stroke-miterlimit:4;stroke-dasharray:none;stroke-opacity:1" d="m 0,0 c 0,0 2.446,1.643 3.399,1.364 0,0 12.385,-0.812 16.199,-0.145 3.811,0.688 1.492,0.145 1.492,0.145 0,0 3.272,0 4.217,1.237 0,0 0.954,0.255 1.501,-0.694 l 2.031,-2.189 c 0,0 0.15,-1.352 -2.168,-1.21 0,0 -22.181,0 -22.861,-0.142 0,0 -4.216,-0.671 -3.81,1.634 z"/></g><g transform="matrix(0.7126818895339966, 0, 0, -0.7126818895339966, 102.75503540039051, 302.82073974609375)" id="g200"><path id="path202" style="fill:#ffffff;fill-opacity:1;fill-rule:nonzero;stroke:none" d="M 0,0 C 0,0 0.954,0 0.816,-1.634 L 0.539,-42.715 c 0,0 0.415,-2.728 -1.899,-4.49 0,0 -1.232,-1.492 -1.232,0.812 l 0.556,41.903 c 0,0 0.129,3.131 2.036,4.49"/></g><g transform="matrix(0.7126818895339966, 0, 0, -0.7126818895339966, 102.75503540039051, 302.8179626464844)" id="g204"><path id="path206" style="fill:none;stroke:#12110c;stroke-width:0.012;stroke-linecap:butt;stroke-linejoin:miter;stroke-miterlimit:4;stroke-dasharray:none;stroke-opacity:1" d="M 0,0 C 0,0 0.954,0 0.825,-1.633 L 0.539,-42.724 c 0,0 0.415,-2.728 -1.903,-4.49 0,0 -1.237,-1.492 -1.237,0.813 l 0.557,41.907 c 0,0 0.132,3.135 2.044,4.494 z"/></g><g transform="matrix(0.7126818895339966, 0, 0, -0.7126818895339966, 101.20374298095692, 303.0156555175781)" id="g208"><path id="path210" style="fill:#ffffff;fill-opacity:1;fill-rule:nonzero;stroke:none" d="m 0,0 c 0,0 -1.634,-2.998 -1.497,-3.683 l -0.137,-9.103 c 0,0 -0.137,-5.85 0,-6.534 0.137,-0.676 -0.137,-17.82 -0.137,-17.82 0,0 -0.136,-3.257 0,-4.352 v -7.343 c 0,0 -0.273,-3.271 2.173,-2.441 0,0 23.947,0.538 25.448,0.124 0,0 2.168,-0.403 1.364,-1.493 0,0 0,-0.959 -1.51,-0.68 0,0 -11.289,-1.081 -21.488,-0.68 0,0 -6.803,-0.401 -7.218,0.401 0,0 -1.082,0.138 -1.082,4.089 0,0 0,3.664 -0.265,4.345 0,0 0.265,1.929 -3.134,2.322 0,0 -4.76,-0.821 -4.897,2.035 0,0 0.676,2.04 5.307,1.775 0,0 3.4,-0.547 2.724,2.181 l 0.402,20.12 c 0,0 0.419,3.553 -1.903,3.695 0,0 -2.168,0.11 -2.861,-0.142 0,0 -3.942,0 -3.669,2.296 0,0 1.36,2.455 5.307,1.908 0,0 2.989,-0.54 3.126,2.852 0,0 -0.137,6.944 1.492,7.209 0,0 3.409,-0.123 2.455,-1.081"/></g><g transform="matrix(0.7126818895339966, 0, 0, -0.7126818895339966, 104.10806274414051, 335.1037292480469)" id="g212"><path id="path214" style="fill:#ffffff;fill-opacity:1;fill-rule:nonzero;stroke:none" d="m 0,0 c 0,0 1.907,-2.031 5.042,-1.912 l 18.485,-0.265 c 0,0 2.054,-0.145 1.925,-1.222 0,0 -0.291,-1.63 -2.728,-1.087 L 0.41,-4.217 -2.044,-4.366 c 0,0 -1.634,0.282 0.962,3.408 z"/></g><g transform="matrix(0.7126818895339966, 0, 0, -0.7126818895339966, 104.1045684814452, 335.1009521484375)" id="g216"><path id="path218" style="fill:none;stroke:#12110c;stroke-width:0.012;stroke-linecap:butt;stroke-linejoin:miter;stroke-miterlimit:4;stroke-dasharray:none;stroke-opacity:1" d="m 0,0 c 0,0 1.908,-2.035 5.047,-1.911 l 18.49,-0.27 c 0,0 2.048,-0.141 1.925,-1.222 0,0 -0.287,-1.634 -2.724,-1.096 L 0.411,-4.229 -2.044,-4.37 c 0,0 -1.629,0.277 0.962,3.412 z"/></g><g transform="matrix(0.7126818895339966, 0, 0, -0.7126818895339966, 144.83006286621082, 333.8356628417969)" id="g220"><path id="path222" style="fill:#ffffff;fill-opacity:1;fill-rule:nonzero;stroke:none" d="m 0,0 c 0,0 1.633,-3.135 2.45,-3.563 0,0 1.497,-1.753 1.091,1.373 L 3.81,36.993 c 0,0 -0.411,1.364 0,3.532 l -1.629,2.994 c 0,0 -1.775,1.359 -1.775,-0.813 L 0.137,0.936 Z"/></g><g transform="matrix(0.7126818895339966, 0, 0, -0.7126818895339966, 144.826934814453, 333.8391418457031)" id="g224"><path id="path226" style="fill:none;stroke:#12110c;stroke-width:0.012;stroke-linecap:butt;stroke-linejoin:miter;stroke-miterlimit:4;stroke-dasharray:none;stroke-opacity:1" d="m 0,0 c 0,0 1.638,-3.13 2.459,-3.563 0,0 1.497,-1.757 1.091,1.377 l 0.269,39.193 c 0,0 -0.411,1.355 0,3.523 l -1.633,2.997 c 0,0 -1.78,1.356 -1.78,-0.816 L 0.137,0.937 Z"/></g><g transform="matrix(0.7126818895339966, 0, 0, -0.7126818895339966, 123.30799865722645, 320.560546875)" id="g228"><path id="path230" style="fill:#ffffff;fill-opacity:1;fill-rule:nonzero;stroke:none" d="m 0,0 c 0,0 0.137,-3.254 -0.278,-6.376 -0.221,-1.726 0.551,-9.673 -0.137,-13.748 0,0 -0.124,-1.364 -2.994,-0.146 0,0 -17.408,-0.401 -17.951,0.146 0,0 -4.759,-0.146 -5.17,2.309 0,0 0.68,18.636 0.274,19.329 0,0 -0.274,10.199 0,11.148 0,0 0.406,9.386 0.137,10.473 0,0 0.137,2.177 -0.274,3.271 0,0 0,1.36 2.318,0.547 0,0 0.804,-1.501 5.298,-0.834 0,0 3.271,-0.539 6.402,-0.128 0,0 6.931,0.543 8.706,0 0,0 2.724,0.543 3.527,-2.459 l -0.136,-8.428 0.812,-2.72 0.958,0.676 0.402,2.044 0.137,8.98 c 0,0 0.543,1.638 2.728,1.907 0,0 3.4,0.415 3.952,0.128 0.543,-0.261 7.876,-0.667 9.929,-0.261 2.035,0.407 2.437,-1.359 8.57,1.762 0,0 1.633,-0.137 1.633,-1.214 0,0 -0.556,-11.581 0,-13.744 0,0 0,-21.219 -0.424,-22.716 l 0.278,-6.802 c 0,0 0.27,-2.995 -4.481,-3.268 0,0 2.994,-0.41 -15.792,0.133 0,0 -2.989,0.14 -6.252,-1.352 0,0 -0.68,0.133 -0.68,1.899 0,0 0.539,6.388 0,12.658 L 1.228,0.149 Z"/></g><g transform="matrix(0.7126818895339966, 0, 0, -0.7126818895339966, 114.57935333251942, 313.6822204589844)" id="g232"><path id="path234" style="fill:#12110c;fill-opacity:1;fill-rule:nonzero;stroke:none" d="m 0,0 c 0,0 0.411,-10.063 0,-11.422 l -0.128,-2.182 c 0,0 0.539,-1.487 1.356,-2.039 0,0 0.684,-1.898 -0.954,-1.766 0,0 -3.395,0.274 -4.212,0.145 0,0 -1.912,0 0,2.434 0,0 0.68,0.967 0.539,3.408 0,0 0,11.422 0.278,12.097 0,0 0.269,1.506 -0.685,1.916 L -5.444,2.45 -7.475,0.547 c 0,0 -0.415,-2.049 -1.368,0.128 v 1.099 l 1.232,3.263 0.817,0.142 c 0,0 1.218,-0.818 2.304,-1.1 h 6.402 l 2.309,1.1 c 0,0 0.949,-0.142 0.689,-1.365 0,0 0.397,-3.139 -1.369,-3.537 0,0 -1.09,0.398 -1.629,1.904 0,0 -1.77,0.944 -1.912,-2.181"/></g><g transform="matrix(0.7126818895339966, 0, 0, -0.7126818895339966, 136.00407409667957, 311.06463623046875)" id="g236"><path id="path238" style="fill:#12110c;fill-opacity:1;fill-rule:nonzero;stroke:none" d="m 0,0 c 0,0 -5.161,0.411 -5.289,-5.165 0,0 -0.561,-3.819 5.161,-6.27 0,0 4.221,-2.031 3.938,-4.614 0,0 -0.543,-4.627 -5.033,-2.317 0,0 -2.172,1.095 -2.027,2.317 0,0 -0.692,1.501 -1.505,1.224 0,0 -0.958,-0.266 -0.534,-4.76 0,0 0,-1.77 2.039,0 l 1.073,-0.278 c 0,0 3.678,-2.993 6.8,0.688 0,0 3.408,3.126 0.953,6.932 0,0 -1.766,2.711 -4.891,4.075 0,0 -2.994,1.373 -3.669,3.683 0,0 0.953,4.088 4.618,1.911 0,0 1.364,-1.634 2.176,-1.911 0,0 1.091,0 0.813,2.459 L 4.366,0 c 0,0 -0.273,1.515 -2.185,0 0,0 -1.77,-0.671 -2.181,0"/></g><g transform="matrix(0.7126818895339966, 0, 0, -0.7126818895339966, 124.1793975830077, 309.02264404296875)" id="g240"><path id="path242" style="fill:#12110c;fill-opacity:1;fill-rule:nonzero;stroke:none" d="m 0,0 c 0.949,-0.693 1.086,-2.049 1.086,-2.049 2.72,-7.205 5.038,-17.69 5.038,-17.69 0.675,-1.347 1.903,-2.442 1.903,-2.442 2.313,-0.812 0,-1.488 0,-1.488 -0.954,-0.415 -4.075,0.124 -4.075,0.124 -1.643,0.291 -0.967,0.821 -0.967,0.821 0.688,0.68 0.141,3.409 0.141,3.409 -0.141,1.077 -1.355,2.851 -1.355,2.851 -0.543,0.275 -1.497,-0.949 -1.497,-0.949 0,0 -1.492,-0.547 -1.638,0 -0.137,0.553 -1.086,1.068 -1.086,1.068 -1.634,0 -2.309,-4.056 -2.309,-4.056 0.949,-3.405 0,-2.853 0,-2.853 -0.812,-1.1 -3.404,-0.291 -3.404,-0.291 -1.223,0.291 -0.398,1.24 -0.398,1.24 1.488,0.261 1.894,1.904 1.894,1.904 0.685,0.949 5.029,18.63 5.029,18.63 C -1.218,-0.949 -0.954,0.68 0,0 m -2.167,-8.976 c -0.142,-0.684 -1.1,-4.494 -1.1,-4.494 l 0.817,-1.373 c 0,0 2.181,-0.124 2.993,-0.124 0.808,0 0.954,0.667 0.954,1.361 0,0.674 -1.497,4.754 -1.497,4.754 l -0.688,0.817 z"/></g><g transform="matrix(0.7126818895339966, 0, 0, -0.7126818895339966, 97.91556549072254, 285.5466003417969)" id="g244"><path id="path246" style="fill:#12110c;fill-opacity:1;fill-rule:nonzero;stroke:none" d="M 0,0 C 0,0 -1.501,-4.772 -8.167,0.137 L -31.02,0.685 c 0,0 -2.993,-0.963 -3.404,2.171 0,0 0.548,6.252 0.265,6.8 0,0 0.146,1.775 -2.852,1.775 0,0 -4.618,-0.556 -4.751,3.527 0,0 -0.821,4.367 5.572,4.217 0,0 2.031,-0.949 2.177,1.637 0,0 -0.274,17.683 -0.146,19.051 0,0 0.556,1.616 -2.574,1.895 0,0 -4.495,-0.945 -5.029,2.048 0,0 -0.278,4.481 2.711,4.759 0,0 3.674,-0.278 4.358,0.663 0,0 0.817,-0.526 0.68,2.742 l 0.137,5.571 c 0,0 0.41,1.497 2.71,1.36 0,0 4.23,-0.269 4.777,0.137 0,0 0.95,1.218 1.21,1.771 0,0 2.19,0.128 2.596,-0.402 0,0 3.258,-2.19 15.651,-1.369 0,0 1.894,0 2.305,-0.548 0,0 2.309,-1.765 3.669,0.142 0,0 2.04,0.406 8.167,0.269 0,0 6.654,-1.766 11.286,2.036 l 1.492,-0.279 c 0,0 1.903,-3.117 3.276,-2.168 0,0 4.075,0.411 4.759,-0.41 0,0 1.364,-2.04 0.671,-7.351 0,0 -0.808,-2.309 3.135,-2.309 0,0 4.485,0.808 3.947,-3.391 0,0 1.227,-4.764 -6.256,-4.088 0,0 -0.958,-1.364 -0.826,-2.314 0,0 -0.132,-15.501 -0.265,-17.28 0,0 -0.132,-2.433 3.131,-2.309 0,0 4.353,0.287 4.485,-3.674 0,0 0.543,-5.165 -5.709,-4.207 0,0 -1.907,-0.282 -2.185,-1.501 l -0.265,-6.8 c 0,0 0.137,-3.403 -3.682,-2.591 C 23.66,0.265 2.994,-0.137 1.218,0.397 1.218,0.397 0.269,0.534 0,0"/></g><g transform="matrix(0.7126818895339966, 0, 0, -0.7126818895339966, 97.91556549072254, 285.5494079589844)" id="g248"><path id="path250" style="fill:none;stroke:#12110c;stroke-width:0.01;stroke-linecap:butt;stroke-linejoin:miter;stroke-miterlimit:4;stroke-dasharray:none;stroke-opacity:1" d="m 0,0 c 0,0 -1.501,-4.773 -8.167,0.137 l -22.857,0.547 c 0,0 -2.994,-0.962 -3.404,2.176 0,0 0.552,6.252 0.269,6.8 0,0 0.141,1.77 -2.857,1.77 0,0 -4.618,-0.556 -4.75,3.528 0,0 -0.817,4.371 5.576,4.221 0,0 2.031,-0.95 2.172,1.633 0,0 -0.274,17.691 -0.141,19.055 0,0 0.556,1.621 -2.578,1.895 0,0 -4.495,-0.946 -5.029,2.052 0,0 -0.278,4.482 2.715,4.755 0,0 3.669,-0.273 4.358,0.671 0,0 0.817,-0.534 0.675,2.734 l 0.142,5.576 c 0,0 0.406,1.496 2.71,1.355 0,0 4.226,-0.265 4.773,0.141 0,0 0.954,1.214 1.214,1.767 0,0 2.185,0.132 2.596,-0.402 0,0 3.254,-2.186 15.651,-1.365 0,0 1.894,0 2.305,-0.547 0,0 2.309,-1.766 3.669,0.141 0,0 2.044,0.406 8.167,0.265 0,0 6.659,-1.757 11.286,2.04 l 1.496,-0.278 c 0,0 1.903,-3.117 3.272,-2.168 0,0 4.075,0.406 4.768,-0.406 0,0 1.355,-2.045 0.667,-7.351 0,0 -0.813,-2.318 3.13,-2.318 0,0 4.494,0.816 3.947,-3.387 0,0 1.227,-4.768 -6.252,-4.088 0,0 -0.962,-1.364 -0.825,-2.318 0,0 -0.137,-15.501 -0.265,-17.276 0,0 -0.137,-2.441 3.126,-2.318 0,0 4.353,0.292 4.49,-3.673 0,0 0.538,-5.161 -5.714,-4.203 0,0 -1.902,-0.287 -2.18,-1.501 l -0.27,-6.8 c 0,0 0.146,-3.408 -3.677,-2.595 -0.543,0 -21.214,-0.398 -22.99,0.136 C 1.218,0.401 0.269,0.534 0,0 Z"/></g><g transform="matrix(0.7126818895339966, 0, 0, -0.7126818895339966, 79.59009552001942, 245.60784912109372)" id="g252"><path id="path254" style="fill:#ffffff;fill-opacity:1;fill-rule:nonzero;stroke:none" d="m 0,0 c 0,0 0.274,-2.715 0.274,-3.395 0,-0.68 -0.415,-39.316 -0.415,-39.316 0,0 0.415,-3.002 -2.176,-4.49 0,0 -0.676,-0.278 -0.817,1.625 l 0.278,40.812 c 0,0 0.269,5.038 2.856,4.764"/></g><g transform="matrix(0.7126818895339966, 0, 0, -0.7126818895339966, 79.5935821533202, 245.6047210693359)" id="g256"><path id="path258" style="fill:none;stroke:#12110c;stroke-width:0.012;stroke-linecap:butt;stroke-linejoin:miter;stroke-miterlimit:4;stroke-dasharray:none;stroke-opacity:1" d="m 0,0 c 0,0 0.273,-2.715 0.273,-3.395 0,-0.68 -0.415,-39.32 -0.415,-39.32 0,0 0.415,-3.002 -2.18,-4.499 0,0 -0.676,-0.274 -0.817,1.629 l 0.269,40.817 c 0,0 0.274,5.038 2.87,4.768 z"/></g><g transform="matrix(0.7126818895339966, 0, 0, -0.7126818895339966, 76.39036560058582, 279.5367736816406)" id="g260"><path id="path262" style="fill:#ffffff;fill-opacity:1;fill-rule:nonzero;stroke:none" d="M 0,0 C 0,0 0.265,38.362 0.137,39.047 0,39.718 0.265,38.495 0.265,38.495 c 0,0 -0.397,6.658 1.368,9.386 0,0 -0.547,2.314 -3.677,-0.538 l -0.124,-5.581 c 0,0 0,-3.13 -2.865,-2.993 0,0 -3.267,0.141 -4.768,-1.365 0,0 -0.813,-2.988 2.309,-2.45 0,0 4.905,0 5.174,-2.026 L -2.587,12.38 c 0,0 1.09,-3.4 -2.724,-3.4 0,0 -4.623,0.261 -4.49,-2.596 0,0 0.953,-2.45 4.905,-1.629 0,0 2.852,-0.547 2.728,-3.254 v -5.183 c 0,0 -0.287,-2.044 2.433,-2.168 h 21.227 c 0,0 1.087,-0.136 1.087,1.228 0,0 -0.138,1.073 -1.762,1.073 L 3.139,-3.267 C 3.139,-3.267 0.265,-4.221 0,0"/></g><g transform="matrix(0.7126818895339966, 0, 0, -0.7126818895339966, 79.00826263427723, 279.7348327636719)" id="g264"><path id="path266" style="fill:#ffffff;fill-opacity:1;fill-rule:nonzero;stroke:none" d="m 0,0 c 0,0 -0.539,-1.912 1.492,-1.492 h 14.013 l 3.81,-0.813 c 0,0 3.956,0.95 0,3.131 0,0 -12.516,-0.146 -13.607,0.128 0,0 -2.578,0.679 -3.125,0.817 C 2.583,1.771 1.219,2.309 0,0"/></g><g transform="matrix(0.7126818895339966, 0, 0, -0.7126818895339966, 79.00512695312489, 279.731689453125)" id="g268"><path id="path270" style="fill:none;stroke:#12110c;stroke-width:0.012;stroke-linecap:butt;stroke-linejoin:miter;stroke-miterlimit:4;stroke-dasharray:none;stroke-opacity:1" d="M 0,0 C 0,0 -0.539,-1.92 1.492,-1.492 H 15.51 l 3.815,-0.821 c 0,0 3.955,0.949 0,3.134 0,0 -12.522,-0.145 -13.612,0.137 0,0 -2.583,0.676 -3.13,0.808 C 2.583,1.766 1.218,2.309 0,0 Z"/></g><g transform="matrix(0.7126818895339966, 0, 0, -0.7126818895339966, 95.59030151367176, 281.0971984863281)" id="g272"><path id="path274" style="fill:#ffffff;fill-opacity:1;fill-rule:nonzero;stroke:none" d="m 0,0 c 0,0 -2.591,0 -2.455,-3.382 0,0 0.274,-2.6 2.989,-2.6 0,0 2.451,0.423 2.186,3.13 0,0 -1.502,3.408 -2.72,2.852"/></g><g transform="matrix(0.7126818895339966, 0, 0, -0.7126818895339966, 96.94326019287098, 280.1186828613281)" id="g276"><path id="path278" style="fill:#ffffff;fill-opacity:1;fill-rule:nonzero;stroke:none" d="m 0,0 c 0,0 1.219,1.36 2.044,1.36 0,0 13.599,-1.228 15.912,0.402 0,0 2.048,0.406 2.583,0 0,0 2.04,-1.63 2.04,-2.579 0,0 -0.133,-1.236 -2.575,-0.556 0,0 -15.386,-0.128 -16.194,-0.128 0,0 -4.221,-0.949 -3.81,1.501"/></g><g transform="matrix(0.7126818895339966, 0, 0, -0.7126818895339966, 96.94019317626942, 280.1186828613281)" id="g280"><path id="path282" style="fill:none;stroke:#12110c;stroke-width:0.012;stroke-linecap:butt;stroke-linejoin:miter;stroke-miterlimit:4;stroke-dasharray:none;stroke-opacity:1" d="m 0,0 c 0,0 1.223,1.364 2.044,1.364 0,0 13.603,-1.232 15.916,0.398 0,0 2.053,0.41 2.587,0 0,0 2.04,-1.63 2.04,-2.583 0,0 -0.132,-1.237 -2.574,-0.552 0,0 -15.386,-0.133 -16.203,-0.133 0,0 -4.221,-0.949 -3.81,1.506 z"/></g><g transform="matrix(0.7126818895339966, 0, 0, -0.7126818895339966, 98.49462127685536, 283.0292053222656)" id="g284"><path id="path286" style="fill:#ffffff;fill-opacity:1;fill-rule:nonzero;stroke:none" d="m 0,0 c 0,0 0,1.082 1.894,1.082 l 19.06,0.141 c 0,0 1.761,-0.94 1.761,2.314 0,0 0.698,14.834 0.76,31.161 0.026,4.856 0.238,9.955 0.053,14.68 0,0 -0.406,2.035 -0.949,2.455 0,0 0,2.176 2.322,1.351 0,0 2.026,-0.129 1.487,-3.254 l 0.133,-4.764 c 0,0 -0.406,-2.04 3.267,-1.497 0,0 3.669,-0.543 3.801,-1.903 0,0 1.1,-2.728 -3.249,-2.45 h -3.126 c 0,0 -1.364,-0.813 -0.958,-2.451 L 25.85,17.144 c 0,0 -0.283,-3.4 2.993,-3.276 0,0 3.4,0.141 4.071,-0.945 0,0 2.322,-3.404 -2.715,-3.131 0,0 -3.131,0.142 -3.811,-0.401 0,0 -0.538,-0.693 -0.949,-7.078 0,0 0.269,-3.81 -2.587,-3.399 0,0 -18.91,-0.265 -20.671,0.137 0,0 -1.912,-0.548 -2.181,0.949"/></g><g transform="matrix(0.7126818895339966, 0, 0, -0.7126818895339966, 81.03776550292957, 244.72676086425778)" id="g288"><path id="path290" style="fill:#ffffff;fill-opacity:1;fill-rule:nonzero;stroke:none" d="m 0,0 -0.397,-43.673 c 0,0 -0.137,-2.027 3.262,-2.437 0,0 3.952,-0.411 4.897,0 0,0 2.578,0.132 9.249,-0.142 0,0 1.634,-1.624 1.766,0.406 0,0 1.091,35.378 0.547,42.72 0,0 -0.132,3.126 -2.454,3.263 0,0 -10.331,-0.813 -11.285,0 L 1.51,1.228 C 1.51,1.228 -0.132,1.099 0,0"/></g><g transform="matrix(0.7126818895339966, 0, 0, -0.7126818895339966, 111.77288818359364, 245.8911437988281)" id="g292"><path id="path294" style="fill:#ffffff;fill-opacity:1;fill-rule:nonzero;stroke:#12110c;stroke-width:0.012;stroke-linecap:butt;stroke-linejoin:miter;stroke-miterlimit:4;stroke-dasharray:none;stroke-opacity:1" d="m 0,0 -0.133,-42.993 c 0,0 1.091,-3.82 2.866,-3.413 0,0 0.269,0.821 0.402,2.19 L 3.687,-3.263 C 3.687,-3.263 2.322,3.268 0,0"/></g><g transform="matrix(0.7126818895339966, 0, 0, -0.7126818895339966, 111.77288818359364, 245.8911437988281)" id="g296"><path id="path298" style="fill:none;stroke:#12110c;stroke-width:0.012;stroke-linecap:butt;stroke-linejoin:miter;stroke-miterlimit:4;stroke-dasharray:none;stroke-opacity:1" d="m 0,0 -0.133,-42.993 c 0,0 1.091,-3.82 2.866,-3.413 0,0 0.269,0.821 0.402,2.19 L 3.687,-3.263 C 3.687,-3.263 2.322,3.268 0,0 Z"/></g><g transform="matrix(0.7126818895339966, 0, 0, -0.7126818895339966, 96.36734008789051, 246.1521301269531)" id="g300"><path id="path302" style="fill:#ffffff;fill-opacity:1;fill-rule:nonzero;stroke:none" d="m 0,0 c 0,0 -0.41,-20.539 -0.282,-21.228 l -0.257,-17.28 -0.551,-5.969 c 0,0 0.808,-1.241 1.492,-0.419 0,0 4.358,1.082 7.077,0.679 0,0 8.711,-0.821 10.473,0.544 0,0 1.36,-0.676 1.77,1.501 0,0 0.539,38.084 0.269,38.768 0,0 0.548,5.435 0.27,5.973 0,0 -0.137,1.237 -2.437,0.155 0,0 0.264,-1.099 -12.654,-0.693 0,0 -4.9,0.141 -5.17,-2.031"/></g><g transform="matrix(0.7126818895339966, 0, 0, -0.7126818895339966, 93.37186431884754, 255.11981201171872)" id="g304"><path id="path306" style="fill:#12110c;fill-opacity:1;fill-rule:nonzero;stroke:none" d="m 0,0 -1.231,-2.596 c 0,0 -2.981,-13.188 -4.61,-15.903 0,0 -0.274,-2.729 -2.587,-0.547 0,0 -5.311,16.728 -5.581,17.275 l -1.77,1.224 c 0,0 -1.073,1.496 0.821,1.629 l 5.033,-0.133 c 0,0 1.629,-1.355 -0.543,-2.869 0,0 0.27,-2.173 3.126,-10.46 0,0 0.812,-3.13 1.766,-0.816 l 2.724,9.66 -0.817,2.856 c 0,0 -0.821,1.36 0.411,1.492 0,0 2.857,0.27 3.258,-0.812"/></g><g transform="matrix(0.7126818895339966, 0, 0, -0.7126818895339966, 99.00098419189442, 256.6739501953125)" id="g308"><path id="path310" style="fill:#12110c;fill-opacity:1;fill-rule:nonzero;stroke:none" d="m 0,0 -0.146,-14.42 -0.397,-1.086 c 0,0 -1.364,-1.762 -0.415,-1.903 0,0 -1.214,-0.821 8.702,-0.953 0,0 3.819,-0.676 2.861,4.22 0,0 -0.406,1.767 -1.775,-0.821 0,0 -0.406,-2.167 -5.293,-1.492 0,0 -1.091,0.949 -1.091,2.035 v 5.991 c 0,0 -0.145,1.502 2.172,1.347 0,0 2.583,-1.625 2.994,-0.936 0,0 0.949,2.168 0,3.532 0,0 -1.228,0.128 -1.36,-0.415 0,0 -0.817,-1.624 -3.13,-0.671 0,0 -1.086,2.172 -0.407,3.943 0,0 -0.269,3.403 2.045,3.126 0,0 2.719,-0.539 2.984,-1.365 0,0 0.68,-1.638 1.369,0.269 L 8.424,2.724 c 0,0 -0.397,0.954 -1.082,0.68 0,0 -4.627,-0.68 -5.178,-0.128 L -1.51,2.861 c 0,0 -0.538,-1.364 1.1,-2.036 C -0.41,0.825 0,0.547 0,0"/></g></g><path d="M 608.0403442382812 208.92999267578125 C 613.080322265625 208.92999267578125 617.2003173828125 206.93331909179688 620.4003295898438 202.9399871826172 L 626.9703369140625 209.71998596191406 C 621.7570190429688 215.59332275390625 615.6103515625 218.5299835205078 608.5303344726562 218.5299835205078 C 601.4503173828125 218.5299835205078 595.620361328125 216.29331970214844 591.0403442382812 211.8199920654297 C 586.4603271484375 207.34664916992188 584.1703491210938 201.7033233642578 584.1703491210938 194.88998413085938 C 584.1703491210938 188.07664489746094 586.503662109375 182.38998413085938 591.1703491210938 177.82998657226562 C 595.8436889648438 173.26998901367188 601.5536499023438 170.989990234375 608.3003540039062 170.989990234375 C 615.84033203125 170.989990234375 622.1536865234375 173.8599853515625 627.2403564453125 179.5999755859375 L 620.8603515625 186.83998107910156 C 617.6136474609375 182.80665588378906 613.580322265625 180.78997802734375 608.7603149414062 180.78997802734375 C 604.906982421875 180.78997802734375 601.6103515625 182.04998779296875 598.870361328125 184.56997680664062 C 596.1303100585938 187.08998107910156 594.7603149414062 190.4866485595703 594.7603149414062 194.75997924804688 C 594.7603149414062 199.0333251953125 596.0536499023438 202.46331787109375 598.6403198242188 205.04998779296875 C 601.2269897460938 207.63665771484375 604.3603515625 208.92999267578125 608.0403442382812 208.92999267578125 ZM 649.8471069335938 179.99998474121094 C 648.1337890625 179.99998474121094 646.7837524414062 180.4033203125 645.797119140625 181.20999145507812 C 644.8104248046875 182.0233154296875 644.3170776367188 183.0999755859375 644.3170776367188 184.4399871826172 C 644.3170776367188 185.7733154296875 644.92041015625 186.83331298828125 646.1270751953125 187.61997985839844 C 647.333740234375 188.41331481933594 650.1170654296875 189.34664916992188 654.4771118164062 190.41998291015625 C 658.8370971679688 191.49331665039062 662.2237548828125 193.1033172607422 664.6370849609375 195.24998474121094 C 667.0504150390625 197.3966522216797 668.257080078125 200.5299835205078 668.257080078125 204.6499786376953 C 668.257080078125 208.76998901367188 666.71044921875 212.11331176757812 663.6170654296875 214.6799774169922 C 660.5304565429688 217.2466583251953 656.4671020507812 218.5299835205078 651.4271240234375 218.5299835205078 C 644.1470947265625 218.5299835205078 637.59375 215.83331298828125 631.76708984375 210.4399871826172 L 637.8770751953125 202.9399871826172 C 642.8304443359375 207.2799835205078 647.410400390625 209.44998168945312 651.6170654296875 209.44998168945312 C 653.5037841796875 209.44998168945312 654.9837646484375 209.04664611816406 656.0570678710938 208.239990234375 C 657.1304321289062 207.42665100097656 657.6671142578125 206.32998657226562 657.6671142578125 204.94998168945312 C 657.6671142578125 203.56997680664062 657.0971069335938 202.4733123779297 655.9570922851562 201.6599884033203 C 654.8170776367188 200.8533172607422 652.5604248046875 200.0333251953125 649.1870727539062 199.19998168945312 C 643.8404541015625 197.92665100097656 639.9271240234375 196.26998901367188 637.4470825195312 194.22998046875 C 634.9737548828125 192.1966552734375 633.7371215820312 188.99664306640625 633.7371215820312 184.62998962402344 C 633.7371215820312 180.26998901367188 635.3037719726562 176.90664672851562 638.4370727539062 174.53997802734375 C 641.5704345703125 172.17330932617188 645.4837646484375 170.989990234375 650.1771240234375 170.989990234375 C 653.2437744140625 170.989990234375 656.3104248046875 171.5166473388672 659.3770751953125 172.56997680664062 C 662.4437866210938 173.62332153320312 665.1170654296875 175.11331176757812 667.3970947265625 177.03997802734375 L 662.2070922851562 184.5299835205078 C 658.2137451171875 181.50997924804688 654.09375 179.99998474121094 649.8471069335938 179.99998474121094 ZM 704.6185302734375 172.03997802734375 L 704.6185302734375 180.91998291015625 L 686.468505859375 180.91998291015625 L 686.468505859375 188.6099853515625 C 687.8284912109375 188.21664428710938 689.3851928710938 188.01998901367188 691.1384887695312 188.01998901367188 C 695.565185546875 188.01998901367188 699.3785400390625 189.35665893554688 702.5784912109375 192.0299835205078 C 705.7785034179688 194.7033233642578 707.3785400390625 198.3099822998047 707.3785400390625 202.84999084472656 C 707.3785400390625 207.38331604003906 705.7251586914062 211.12998962402344 702.4185180664062 214.08998107910156 C 699.1051635742188 217.04998779296875 695.0151977539062 218.5299835205078 690.1484985351562 218.5299835205078 C 683.9285278320312 218.5299835205078 678.7351684570312 216.22665405273438 674.5684814453125 211.61997985839844 L 679.95849609375 204.12998962402344 C 680.3518676757812 204.5233154296875 680.8785400390625 205.00331115722656 681.5385131835938 205.56997680664062 C 682.198486328125 206.143310546875 683.4051513671875 206.8999786376953 685.1585083007812 207.83998107910156 C 686.911865234375 208.78665161132812 688.6651611328125 209.25997924804688 690.4185180664062 209.25997924804688 C 692.171875 209.25997924804688 693.7251586914062 208.7333221435547 695.0784912109375 207.67999267578125 C 696.4385375976562 206.62664794921875 697.1185302734375 205.06997680664062 697.1185302734375 203.00997924804688 C 697.1185302734375 200.94998168945312 696.3851928710938 199.3599853515625 694.9185180664062 198.239990234375 C 693.4518432617188 197.12664794921875 691.55517578125 196.56997680664062 689.228515625 196.56997680664062 C 686.9085083007812 196.56997680664062 684.2151489257812 197.3999786376953 681.1484985351562 199.0599822998047 L 676.8685302734375 194.45999145507812 L 676.8685302734375 172.03997802734375 L 704.6185302734375 172.03997802734375 ZM 726.4393310546875 183.67999267578125 C 726.4393310546875 183.67999267578125 726.079345703125 184.37998962402344 725.359375 185.7799835205078 C 724.6326904296875 187.1866455078125 724.2693481445312 190.1899871826172 724.2693481445312 194.78997802734375 C 724.2693481445312 199.38998413085938 724.99267578125 203.09332275390625 726.4393310546875 205.8999786376953 C 727.8860473632812 208.70664978027344 730.1427001953125 210.1099853515625 733.2093505859375 210.1099853515625 C 736.28271484375 210.1099853515625 738.5393676757812 208.70664978027344 739.9793701171875 205.8999786376953 C 741.426025390625 203.09332275390625 742.1493530273438 199.38998413085938 742.1493530273438 194.78997802734375 C 742.1493530273438 190.1899871826172 741.426025390625 186.4866485595703 739.9793701171875 183.67999267578125 C 738.5393676757812 180.87332153320312 736.28271484375 179.46998596191406 733.2093505859375 179.46998596191406 C 730.1427001953125 179.46998596191406 727.8860473632812 180.87332153320312 726.4393310546875 183.67999267578125 M 733.2093505859375 218.5299835205078 C 733.2093505859375 218.5299835205078 731.6226806640625 218.5299835205078 728.4493408203125 218.5299835205078 C 725.2693481445312 218.5299835205078 722.1026611328125 216.36997985839844 718.9493408203125 212.04998779296875 C 715.7893676757812 207.72998046875 714.2093505859375 201.96664428710938 714.2093505859375 194.75997924804688 C 714.2093505859375 187.54664611816406 715.7893676757812 181.7833251953125 718.9493408203125 177.46998596191406 C 722.1026611328125 173.14999389648438 726.8560180664062 170.989990234375 733.2093505859375 170.989990234375 C 739.5693359375 170.989990234375 744.3260498046875 173.14999389648438 747.4793701171875 177.46998596191406 C 750.6326904296875 181.7833251953125 752.2093505859375 187.54664611816406 752.2093505859375 194.75997924804688 C 752.2093505859375 201.96664428710938 750.6326904296875 207.72998046875 747.4793701171875 212.04998779296875 C 744.3260498046875 216.36997985839844 739.5693359375 218.5299835205078 733.2093505859375 218.5299835205078 Z" transform="matrix(2.47467041015625, 0, 0, 2.47467041015625, -1289.6656494140625, -319.8046822973698)" style="fill: rgb(51, 51, 51); white-space: pre; color: rgb(51, 51, 51);"/></svg>