<?xml version="1.0" encoding="utf-8"?>
<svg id="master-artboard" viewBox="0 0 600 600" version="1.1" xmlns="http://www.w3.org/2000/svg" x="0px" y="0px" style="enable-background:new 0 0 1400 980;" width="600px" height="600px"><defs><clipPath id="clipPath18" clipPathUnits="userSpaceOnUse"><path id="path16" d="M 0,220.245 H 841.89 V 0 H 0 Z"/></clipPath><style id="ee-google-fonts">@import url(https://fonts.googleapis.com/css?family=Montserrat:400,700);</style><clipPath id="path-1" clipPathUnits="userSpaceOnUse"><path id="path-2" d="M 0,220.245 H 841.89 V 0 H 0 Z"/></clipPath><clipPath id="path-3" clipPathUnits="userSpaceOnUse"><path id="path-4" d="M 0,220.245 H 841.89 V 0 H 0 Z"/></clipPath></defs><rect id="ee-background" x="0" y="0" width="600" height="600" style="fill: white; fill-opacity: 0; pointer-events: none;"/><metadata id="metadata8"/><metadata id="metadata-1"/><rect id="rect-1" x="0" y="0" width="600" height="600" style="fill: white; fill-opacity: 0; pointer-events: none;" transform="matrix(1, 0, 0, 1, -0.000025556555556249805, 0)"/><metadata id="metadata-2"/><g transform="matrix(3.5210213661193848, 0, 0, 3.5210213661193848, 25.49446484250086, -740.9289862396524)"><path class="st0" d="M83.3,389.4c-0.7,0-1.4-0.2-2.1-0.5l-50.7-28.1c-1.2-0.7-2-1.9-2.2-3.3l-8.2-78.3c-0.2-2,1-3.9,2.9-4.6&#10;&#9;&#9;l58.3-20.7c0.9-0.3,1.9-0.3,2.8,0l59.5,20.6c1.9,0.7,3.1,2.6,2.9,4.6l-9.5,78.3c-0.2,1.4-1,2.6-2.1,3.3l-49.4,28.1&#10;&#9;&#9;C84.8,389.2,84,389.4,83.3,389.4C83.3,389.4,83.3,389.4,83.3,389.4z" style="fill: rgb(51, 170, 204);" transform="matrix(0.9202454090118408, 0, 0, 0.9202454090118408, -0.000025556559194228612, 0)"/><path class="st1" d="M108.5,311.2c1.2-4.8,1-9.3-1.6-15.7c0,0,4.2,1.6,3.8-1.6c-0.4-3.3-5.1-6.7-8.5-8.9c-1.5-1-5.7-3-11.2-4.3&#10;&#9;&#9;l1-2.4l-0.3-0.1c-8.6-4.2-18.5-0.4-18.6-0.4l-0.3,0.1l1,2.6c-2.9,0.7-5.7,1.7-8.3,3.1c-23.4,12.5-11.5,37-4.3,42.9&#10;&#9;&#9;c7.2,5.8,3.9,17.7,0,28.5h31.4c0.4-2,0.1,1,1.5-7c1.5-8,7.1-5.1,11.5-5.3c4.4-0.3,3.7-3.4,3.7-6.9c2.2-1,2.2-2,0.7-3.3&#10;&#9;&#9;c1.9-1.8,1.6-1.8,0.6-3.5c-1-1.7-0.3-2.5-0.3-2.5s3-0.6,3.5-2.2C113.8,321,107.3,316,108.5,311.2&#10;&#9;&#9;C108.5,311.2,108.5,311.2,108.5,311.2z" style="fill: rgb(255, 255, 255);" transform="matrix(0.9202454090118408, 0, 0, 0.9202454090118408, -0.000025556559194228612, 0)"/><path class="st0" d="M102,310.2l-4.6-1.6c-0.2,0.6-2.6,6.6-5.7,7.6l-2.9-3.9c-1.4,1.1-4.6,2.1-6.2,1.6v-0.1h-0.1l0.1,10.8&#10;&#9;&#9;c-6.2,0.6-13.5-3.1-17.1-8.3l-3.9,2.9c-4.4-5.3-5.1-11.8-5.1-15.5h5.2c0-4.1,1.6-9.4,3.8-12.4l4,2.9c0.3-0.4,3.4-4.1,7.5-5.4h0.1&#10;&#9;&#9;l-2.9-7.8c6.2-1.8,10.7-1.8,15.7,0.1c0.2,0,0.3,0.1,0.4,0.2l0.1,0.1l-0.9,2.3c0.2,0.1,3.5,1.6,4.9,3l1.1-1.5&#10;&#9;&#9;c4.1,2.5,7.1,6.5,8.3,11.2l-1.7,0.6v0C103.3,301.3,103.3,305.9,102,310.2C102,310.2,102,310.2,102,310.2z" style="fill: rgb(51, 170, 204);" transform="matrix(0.9202454090118408, 0, 0, 0.9202454090118408, -0.000025556559194228612, 0)"/><path class="st1" d="M82.3,295.9c-2.1,0-4,1.3-4.8,3.2c-0.8,1.9-0.4,4.2,1.1,5.7c1.5,1.5,3.7,1.9,5.6,1.1c1.9-0.8,3.2-2.7,3.2-4.8&#10;&#9;&#9;C87.4,298.3,85.1,296,82.3,295.9L82.3,295.9z" style="fill: rgb(255, 255, 255);" transform="matrix(0.9202454090118408, 0, 0, 0.9202454090118408, -0.000025556559194228612, 0)"/></g></svg>