<?xml version="1.0" encoding="utf-8"?>
<svg id="master-artboard" viewBox="0 0 600 600" xmlns="http://www.w3.org/2000/svg" width="600px" height="600px" version="1.1" style="shape-rendering:geometricPrecision; text-rendering:geometricPrecision; image-rendering:optimizeQuality; fill-rule:evenodd; clip-rule:evenodd"><rect id="ee-background" x="0" y="0" width="600" height="600" style="fill: white; fill-opacity: 0; pointer-events: none;"/><rect id="rect-1" x="0" y="0" width="600" height="600" style="fill: white; fill-opacity: 0; pointer-events: none;" transform="matrix(0.999999761581421, 0, 0, 0.999999761581421, -0.00002555659727931925, 0)"/><path fill="#03EF62" d="m273.2 378.4v-95.3l150.4-85.8-36.6-20.9-113.8 64.9v-95.7c0-6.4-3.5-12.5-9.1-15.7L127.2 51.3a26.1 26.1 90 00-26.5.8A26.1 26.1 90 0088.4 74.4v268.9c0 9.1 4.6 17.5 12.3 22.3a26 26 90 0026.5.8l109.7-62.6V389c0 6.5 3.6 12.6 9.2 15.8l140.7 80.1 36.6-21-150.2-85.5zm-36.3-222.2V262l-112.2 64V91.8l112.2 64.4z" transform="matrix(1.1718748807907104, 0, 0, 1.1718748807907104, -0.00002555659375502728, 0)" style="fill: rgb(51, 51, 51);"/></svg>