<?xml version="1.0" encoding="utf-8"?>
<svg id="master-artboard" viewBox="0 0 600 600" version="1.1" xmlns="http://www.w3.org/2000/svg" x="0px" y="0px" style="enable-background:new 0 0 1400 980;" width="600px" height="600px" xmlns:xlink="http://www.w3.org/1999/xlink"><defs><clipPath id="clipPath18" clipPathUnits="userSpaceOnUse"><path id="path16" d="M 0,220.245 H 841.89 V 0 H 0 Z"/></clipPath><style id="ee-google-fonts">@import url(https://fonts.googleapis.com/css?family=Montserrat:400,700);</style><clipPath id="path-1" clipPathUnits="userSpaceOnUse"><path id="path-2" d="M 0,220.245 H 841.89 V 0 H 0 Z"/></clipPath><clipPath id="path-3" clipPathUnits="userSpaceOnUse"><path id="path-4" d="M 0,220.245 H 841.89 V 0 H 0 Z"/></clipPath><path id="A" d="M44.5 20H24v8.5h11.8C34.7 33.9 30.1 37 24 37c-7.2 0-13-5.8-13-13s5.8-13 13-13c3.1 0 5.9 1.1 8.1 2.9l6.4-6.4C34.6 4.1 29.6 2 24 2 11.8 2 2 11.8 2 24s9.8 22 22 22c11 0 21-8 21-22 0-1.3-.2-2.7-.5-4z"/></defs><rect id="ee-background" x="0" y="0" width="600" height="600" style="fill: white; fill-opacity: 0; pointer-events: none;"/><metadata id="metadata8"/><metadata id="metadata-1"/><rect id="rect-1" x="0" y="0" width="600" height="600" style="fill: white; fill-opacity: 0; pointer-events: none;" transform="matrix(1, 0, 0, 1, -0.000025556555556249805, 0)"/><metadata id="metadata-2"/><g transform="matrix(16.351093292236325, 0, 0, 16.351093292236325, 34.5573435226795, 40.05739974975586)"><clipPath id="B"><use xlink:href="#A"/></clipPath><g transform="matrix(.727273 0 0 .727273 -.954545 -1.45455)"><path d="M0 37V11l17 13z" clip-path="url(#B)" fill="#fbbc05"/><path d="M0 11l17 13 7-6.1L48 14V0H0z" clip-path="url(#B)" fill="#ea4335"/><path d="M0 37l30-23 7.9 1L48 0v48H0z" clip-path="url(#B)" fill="#34a853"/><path d="M48 48L17 24l-4-3 35-10z" clip-path="url(#B)" fill="#4285f4"/></g></g></svg>