<?xml version="1.0" encoding="utf-8"?>
<svg id="master-artboard" viewBox="0 0 600 600" version="1.1" xmlns="http://www.w3.org/2000/svg" x="0px" y="0px" style="enable-background:new 0 0 1400 980;" width="600px" height="600px"><defs><clipPath id="clipPath18" clipPathUnits="userSpaceOnUse"><path id="path16" d="M 0,220.245 H 841.89 V 0 H 0 Z"/></clipPath><style id="ee-google-fonts">@import url(https://fonts.googleapis.com/css?family=Montserrat:400,700);</style><clipPath id="path-1" clipPathUnits="userSpaceOnUse"><path id="path-2" d="M 0,220.245 H 841.89 V 0 H 0 Z"/></clipPath><clipPath id="path-3" clipPathUnits="userSpaceOnUse"><path id="path-4" d="M 0,220.245 H 841.89 V 0 H 0 Z"/></clipPath><path id="A" d="M44.5 20H24v8.5h11.8C34.7 33.9 30.1 37 24 37c-7.2 0-13-5.8-13-13s5.8-13 13-13c3.1 0 5.9 1.1 8.1 2.9l6.4-6.4C34.6 4.1 29.6 2 24 2 11.8 2 2 11.8 2 24s9.8 22 22 22c11 0 21-8 21-22 0-1.3-.2-2.7-.5-4z"/></defs><rect id="ee-background" x="0" y="0" width="600" height="600" style="fill: white; fill-opacity: 0; pointer-events: none;"/><metadata id="metadata8"/><metadata id="metadata-1"/><rect id="rect-1" x="0" y="0" width="600" height="600" style="fill: white; fill-opacity: 0; pointer-events: none;" transform="matrix(1, 0, 0, 1, -0.000025556559194228612, 0)"/><metadata id="metadata-2"/><g transform="matrix(15.8189697265625, 0, 0, 15.8189697265625, 46.896453857421875, 46.896481713064105)"><path d="M0 9.6v.876h6.23V9.6zm7.11 0v.876h8.876c0 0-.907-.876-2.107-.876zm10.618 0v.876h5.37l-.32-.876zm9.22 0l-.32.876h5.32V9.6zM0 11.303v.876h6.23v-.876zm7.11.001v.875h9.906c0 0-.116-.674-.317-.875zm10.618 0v.875h5.96l-.295-.875zm8.583 0l-.295.875h5.935v-.875zM1.8 13.006v.877h2.697v-.877zm7.11 0v.877H11.6v-.877zm5.32 0v.877h2.698c0 0 .17-.463.17-.877zm5.296 0v.877H24.3l-.32-.877zm6.205 0l-.32.877H30.2v-.877zM1.8 14.71v.876h2.697v-.876zm7.11 0v.876h6.9c0 0 .576-.45.76-.876zm10.618 0v.876h2.697V15.1l.17.487h4.94l.184-.487v.487H30.2v-.876h-5.064l-.27.742-.27-.742zM1.8 16.414v.876h2.697v-.876zm7.11 0v.876h7.65c-.184-.425-.76-.876-.76-.876zm10.618 0v.876h2.697v-.876zm3.188 0l.326.876h3.705l.3-.876zm4.806 0v.876H30.2v-.876zM1.8 18.117v.876h2.697v-.876zm7.11 0v.876H11.6v-.876zm5.32 0v.876h2.87c0-.413-.17-.876-.17-.876zm5.296 0v.876h2.697v-.876zm3.8 0l.316.876h2.484l.32-.876zm4.194 0v.876H30.2v-.876zM.05 19.82v.877h6.23v-.877zm7.063 0v.877h9.59c.202-.2.317-.877.317-.877zm10.666 0v.877h4.44v-.877zm6.155 0l.325.877h1.264l.305-.877zm3.58 0v.877H32v-.877zM.05 21.524v.876h6.23v-.876zm7.063 0v.875h6.77c1.2 0 2.108-.875 2.108-.875zm10.666 0v.876h4.44v-.876zm6.77 0l.313.873.054.001.318-.875zm2.964 0v.876H32v-.876z" fill="#1f70c1"/></g></svg>