<svg version="1.1" id="Layer_1" xmlns="http://www.w3.org/2000/svg" xmlns:xlink="http://www.w3.org/1999/xlink" x="0px" y="0px"
	 width="100%" viewBox="0 0 1200 630" enable-background="new 0 0 1200 630" xml:space="preserve">
<path fill="#FFFFFF" opacity="1.000000" stroke="none" 
	d="
M705.000000,631.000000 
	C470.000000,631.000000 235.500031,631.000000 1.000031,631.000000 
	C1.000021,421.000031 1.000021,211.000046 1.000010,1.000060 
	C400.999969,1.000040 800.999939,1.000040 1201.000000,1.000020 
	C1201.000000,210.999939 1201.000000,420.999878 1201.000000,630.999878 
	C1035.833374,631.000000 870.666687,631.000000 705.000000,631.000000 
M680.148132,157.314270 
	C681.564209,151.514938 682.980225,145.715607 684.824219,139.382233 
	C688.366272,126.135513 691.908325,112.888802 695.770020,98.446701 
	C693.004883,99.710449 691.526184,100.319649 690.107178,101.045540 
	C680.035950,106.197151 670.044434,111.511490 659.872986,116.456001 
	C656.817261,117.941429 655.940125,119.754379 656.005859,122.998245 
	C656.210754,133.097992 656.080994,143.204498 656.080994,154.703857 
	C616.786865,129.183777 577.916138,129.613159 538.724182,154.725891 
	C538.724182,142.887711 538.591919,132.574890 538.800232,122.268936 
	C538.867615,118.933952 537.724365,117.208763 534.726318,115.812164 
	C527.037720,112.230515 519.524536,108.273239 511.928528,104.491676 
	C508.162262,102.616707 504.367981,100.797958 499.167633,98.261887 
	C503.275848,113.288780 506.980347,126.838837 510.773346,141.164444 
	C512.263977,146.781296 513.754578,152.398148 515.244751,158.783813 
	C515.716003,160.535339 516.129028,162.305084 516.670349,164.034668 
	C517.887573,167.923477 518.194397,172.611847 520.624512,175.500000 
	C525.796021,181.646194 532.084106,186.852875 537.967651,193.324844 
	C538.034363,200.173431 538.101135,207.022018 537.809692,214.576065 
	C532.819946,233.122910 527.817139,251.666290 522.875549,270.225983 
	C522.601379,271.255859 522.443787,272.623016 522.892090,273.493011 
	C529.188171,285.711853 535.598938,297.871582 541.974121,310.820587 
	C542.171814,314.019196 538.209167,317.494049 541.977478,320.342590 
	C547.457764,324.485382 553.299744,328.149658 559.408997,332.249573 
	C559.670227,332.447906 559.868408,332.696503 560.011841,333.820801 
	C559.254944,337.584320 561.296448,339.600952 564.372437,341.171143 
	C574.284790,346.231110 584.081909,351.524170 594.096924,356.368866 
	C595.961731,357.270966 599.003113,357.285065 600.865723,356.388336 
	C610.589600,351.706818 619.996460,346.362274 629.751770,341.752472 
	C633.841309,339.819977 635.810974,337.466461 635.568237,332.760742 
	C636.368042,332.162659 637.167908,331.564575 638.593140,330.704224 
	C641.373169,328.694153 643.918701,326.166412 646.980835,324.779175 
	C653.868774,321.658752 655.767639,316.918488 653.625916,309.721405 
	C658.285278,300.723236 662.614624,291.532806 667.709534,282.788391 
	C671.698975,275.941315 672.709534,269.634949 670.179443,261.772522 
	C665.112244,246.025620 661.248657,229.891373 656.957703,212.992661 
	C656.962830,206.285355 656.968018,199.578033 657.536682,192.545776 
	C662.833313,187.323792 668.192810,182.163116 673.382812,176.837280 
	C674.704468,175.481033 675.909241,173.724686 676.436462,171.936584 
	C677.785706,167.359848 678.723511,162.661789 680.148132,157.314270 
M287.164948,417.515015 
	C287.529572,444.397156 287.894165,471.279327 288.265198,498.635132 
	C291.462189,498.635132 295.131714,498.635132 298.694031,498.635132 
	C298.694031,486.703735 298.641968,475.243683 298.757263,463.785309 
	C298.772369,462.285339 299.215851,459.941528 300.196564,459.446838 
	C304.371307,457.340820 308.822754,455.783417 314.028931,453.680023 
	C314.028931,466.329681 314.176117,477.537659 313.986511,488.739929 
	C313.805328,499.446381 313.992371,499.771057 324.578461,498.760681 
	C324.870361,498.732849 325.138824,498.459167 324.839294,498.629700 
	C324.839294,468.012878 324.839294,437.738495 324.839294,407.135742 
	C323.547546,407.061737 321.922577,406.962189 320.296906,406.876587 
	C313.884766,406.538910 313.483795,407.172852 313.816650,413.868713 
	C314.204926,421.679138 314.301178,429.507935 314.323334,437.329376 
	C314.327576,438.833466 313.842194,441.165436 312.831573,441.702759 
	C308.476593,444.018219 303.841949,445.807678 298.058990,448.335022 
	C298.058990,433.543396 298.058990,420.464569 298.058990,407.361481 
	C286.703979,405.193848 286.430237,404.776093 287.164948,417.515015 
M567.835449,422.922058 
	C567.835449,447.825684 567.835449,472.729279 567.835449,498.412384 
	C570.812500,498.586365 574.322693,498.791504 578.016663,499.007385 
	C578.016663,474.687195 578.016663,451.060669 578.016663,427.434174 
	C578.472168,427.382416 578.927673,427.330658 579.383240,427.278931 
	C585.910278,438.582275 597.262695,447.848633 594.078796,463.259552 
	C593.880249,464.220673 593.986572,465.249054 593.986084,466.246155 
	C593.981018,477.006836 593.982910,487.767517 593.982910,498.413696 
	C604.619690,500.028595 605.375183,499.265656 604.925171,489.536255 
	C604.471191,479.722015 604.308594,469.894562 603.983093,460.074066 
	C603.846924,455.965607 603.359863,451.852386 603.482117,447.754761 
	C603.873535,434.631683 604.475403,421.514832 605.020447,407.781128 
	C601.178162,407.500580 597.818420,407.255280 593.787842,406.960999 
	C593.787842,415.581635 593.787842,423.482819 593.787842,432.834473 
	C587.420166,422.973877 581.942810,414.491943 576.553833,406.146942 
	C567.100769,408.201385 567.094910,408.201630 567.455872,417.008331 
	C567.524048,418.671997 567.659668,420.332916 567.835449,422.922058 
M718.926147,406.523682 
	C714.824829,404.806671 708.513062,407.877899 708.534058,411.674774 
	C708.608398,425.136353 708.853577,438.597504 708.853455,452.058838 
	C708.853394,461.779388 708.534180,471.499542 708.420471,481.220642 
	C708.353088,486.986420 708.408203,492.753662 708.408203,498.469330 
	C718.750793,500.088501 720.608704,499.297363 719.814087,489.173859 
	C719.710022,487.847412 719.455811,486.524933 719.449890,485.199829 
	C719.414795,477.376190 719.432678,469.552277 719.432678,460.232208 
	C725.585571,474.358185 731.156128,487.147369 736.800232,500.105225 
	C739.731628,498.311737 742.218994,497.347076 743.867432,495.593719 
	C745.048767,494.337219 746.123352,491.522980 745.501953,490.265045 
	C741.404480,481.970459 736.739258,473.959076 732.452393,465.754395 
	C729.721558,460.527802 727.762085,455.339050 733.188843,450.187439 
	C735.925659,447.589355 737.881592,444.154419 740.115845,441.044189 
	C745.143005,434.046021 744.295166,429.726440 737.036072,425.032196 
	C736.639893,424.776031 736.137085,424.635162 735.824463,424.306793 
	C730.349487,418.556793 724.896301,412.785950 718.926147,406.523682 
M481.019348,479.483734 
	C481.019348,485.454437 481.019348,491.425140 481.019348,497.651367 
	C484.436188,498.339447 487.963287,499.049744 491.579926,499.778046 
	C499.748138,484.921173 508.090363,470.357605 515.735718,455.436951 
	C517.791565,451.424835 517.455627,446.496948 514.407654,442.190430 
	C509.232208,434.878082 504.206573,427.444763 499.465302,419.845551 
	C496.510437,415.109619 494.193726,409.975555 491.537903,404.919739 
	C488.946960,405.750366 487.112915,406.615509 485.193146,406.898163 
	C480.692352,407.560822 479.914459,410.186981 480.227844,414.261261 
	C480.682098,420.167023 480.583984,426.118256 480.642029,432.050873 
	C480.793427,447.529907 480.901642,463.009399 481.019348,479.483734 
M767.242004,486.392029 
	C768.554993,490.460175 769.868042,494.528320 771.236328,498.767883 
	C774.202576,498.767883 777.317078,498.767883 780.034424,498.767883 
	C785.533875,485.014099 791.111938,471.680481 796.107666,458.132141 
	C797.341614,454.785736 797.818054,450.350677 796.694580,447.086731 
	C792.217407,434.080475 787.073975,421.296692 781.847107,408.566132 
	C781.334473,407.317566 778.530151,406.335693 776.841614,406.410156 
	C774.591675,406.509338 771.644836,405.013947 770.292908,408.993286 
	C766.032410,421.533661 761.595703,434.028107 756.712524,446.336121 
	C754.765259,451.244415 754.906311,455.576599 756.820374,460.239777 
	C760.284729,468.679932 763.619873,477.173065 767.242004,486.392029 
M458.712067,436.720032 
	C455.175964,427.430267 451.477814,418.197174 448.199249,408.817413 
	C447.170807,405.874908 445.340454,405.804504 443.212250,406.295135 
	C440.807678,406.849487 437.691498,404.862732 436.254761,409.124451 
	C432.076721,421.517609 427.674957,433.851990 422.815125,445.990875 
	C420.713715,451.239624 421.028015,455.840729 423.033997,460.844513 
	C428.017181,473.274811 432.803772,485.783875 437.866425,498.766785 
	C440.092926,498.766785 443.200439,498.766785 445.993164,498.766785 
	C451.608459,484.811554 457.369476,471.202118 462.451294,457.343658 
	C463.651672,454.070129 463.012360,449.883392 462.397034,446.256226 
	C461.880493,443.211609 460.166748,440.370148 458.712067,436.720032 
M868.965393,446.752594 
	C866.372437,446.752594 863.779419,446.752594 861.176270,446.752594 
	C861.176270,436.892090 861.176270,427.620422 861.176270,417.992859 
	C867.752258,418.291840 873.093811,418.534698 878.625366,418.786224 
	C878.625366,414.600281 878.625366,411.026520 878.625366,407.717102 
	C868.999939,407.717102 859.727173,407.717102 849.812073,407.717102 
	C850.396790,411.927124 851.273804,415.345520 851.277405,418.764862 
	C851.293518,434.212372 851.137512,449.661285 850.891663,465.107300 
	C850.749451,474.041290 850.310791,482.970398 850.021179,491.902222 
	C849.799194,498.747528 850.146240,499.014160 856.728455,498.838928 
	C861.171631,498.720612 865.629456,498.721222 870.067627,498.936890 
	C880.212341,499.429810 880.823181,498.914276 880.673462,488.736694 
	C880.666748,488.278870 880.382385,487.825134 880.058472,486.873291 
	C877.844910,487.025940 875.530396,486.940613 873.320007,487.379425 
	C862.392212,489.548828 861.484619,488.920746 861.376099,478.170380 
	C861.308167,471.447693 861.363403,464.723785 861.363403,457.708191 
	C866.378052,457.708191 870.802612,457.708191 875.158081,457.708191 
	C877.152649,446.744446 876.106079,444.983276 868.965393,446.752594 
M373.152283,449.826416 
	C373.092346,446.744080 371.510132,445.906464 368.576111,446.299042 
	C365.182892,446.753052 361.734802,446.796722 358.118469,447.031006 
	C358.118469,437.010712 358.118469,427.730377 358.118469,417.993835 
	C364.641083,418.304199 369.989502,418.558655 375.501343,418.820923 
	C375.501343,414.602875 375.501343,410.912598 375.501343,407.643555 
	C365.860931,407.643555 356.687408,407.643555 347.880005,407.643555 
	C347.880005,413.877655 347.914124,419.460297 347.873810,425.042419 
	C347.737183,443.948242 347.593140,462.854126 347.406525,481.759521 
	C347.365448,485.918213 347.190826,490.077759 346.978546,494.231873 
	C346.809692,497.535339 347.951385,499.030762 351.566345,498.848907 
	C356.664032,498.592438 361.796875,498.679779 366.898804,498.936035 
	C377.192352,499.453094 378.355804,498.338562 377.544922,487.919830 
	C377.534271,487.782806 377.352234,487.659149 376.782593,486.933838 
	C372.330078,487.243774 367.443939,487.784302 362.556915,487.792603 
	C361.223663,487.794891 358.756622,486.232513 358.727936,485.327423 
	C358.440186,476.252228 358.553009,467.164337 358.553009,457.812592 
	C363.234222,457.812592 367.673401,457.812592 372.466888,457.812592 
	C372.688324,455.303619 372.890259,453.015472 373.152283,449.826416 
M669.879761,496.166656 
	C669.340942,491.418121 667.791321,486.506500 668.524475,481.963196 
	C669.399475,476.540161 667.437866,470.582642 672.176392,465.597290 
	C678.469604,458.976349 684.023682,451.633392 689.666321,444.421570 
	C692.681702,440.567657 693.309998,435.719513 690.325073,431.935822 
	C683.463379,423.238037 675.986877,415.022888 668.666565,406.693878 
	C668.061646,406.005585 666.674866,405.502106 665.777649,405.654846 
	C660.067078,406.627106 658.072266,409.205322 658.332336,415.082306 
	C658.457275,417.906036 659.002686,420.726105 658.951111,423.540375 
	C658.523010,446.905487 659.730164,470.291412 658.074951,493.641052 
	C657.972717,495.083008 658.061646,496.538513 658.061646,499.552124 
	C662.447144,498.631866 666.155212,497.853790 669.879761,496.166656 
M257.459381,439.508484 
	C257.459381,432.337402 257.459381,425.166351 257.459381,418.015015 
	C262.579590,418.015015 266.502899,418.015015 270.440369,418.015015 
	C270.440369,414.304626 270.440369,410.931915 270.440369,407.641968 
	C258.312103,407.641968 246.745071,407.641968 234.777802,407.641968 
	C234.777802,410.728699 233.566696,416.296997 235.027100,417.118988 
	C238.176346,418.891571 242.698120,418.225677 247.188599,418.601990 
	C247.188599,444.736298 247.188599,471.247559 247.188599,497.953156 
	C247.755173,498.111481 248.538757,498.387848 249.345474,498.546844 
	C256.330994,499.923798 258.628143,497.670624 258.203308,490.702637 
	C257.578583,480.455994 257.179230,470.188812 256.990479,459.924774 
	C256.871552,453.456818 257.312439,446.978546 257.459381,439.508484 
M946.364624,417.963226 
	C946.737610,422.140991 947.475159,426.323425 947.421387,430.495697 
	C947.167542,450.200378 946.691284,469.902161 946.311035,489.605286 
	C946.260010,492.248077 946.304077,494.892700 946.304077,497.788269 
	C948.228088,498.206421 949.845337,498.900055 951.429077,498.830475 
	C954.664124,498.688354 958.617554,498.898407 958.551697,494.047119 
	C958.354126,479.477905 957.966248,464.911316 957.662537,450.343506 
	C957.471802,441.196167 957.294495,432.048615 957.120178,422.900970 
	C957.053589,419.405457 957.998352,417.093445 962.287964,417.802155 
	C964.989258,418.248444 967.777954,418.165283 971.074768,418.350372 
	C970.849854,414.181274 970.667664,410.804169 970.497620,407.653015 
	C958.174622,407.653015 946.613892,407.653015 935.018188,407.653015 
	C932.853333,418.876404 934.212036,420.215424 946.364624,417.963226 
M890.949402,450.906433 
	C890.232971,459.559753 895.244385,465.915161 899.634460,472.514221 
	C900.446289,473.734528 901.552124,474.798004 902.173096,476.100372 
	C906.105713,484.348145 909.940125,492.642761 914.117859,501.587646 
	C918.021667,498.140564 921.068054,495.450653 923.840515,493.002563 
	C917.029785,481.123993 910.698669,469.816986 904.081543,458.679932 
	C901.663391,454.610046 900.968079,451.122955 903.647278,446.766418 
	C909.097107,437.904907 914.146606,428.792542 919.209717,419.699280 
	C924.407104,410.365051 925.467590,411.976624 914.932373,405.303497 
	C913.626282,407.340149 912.112305,409.286102 911.039124,411.450623 
	C907.527405,418.532776 904.334778,425.776215 900.714294,432.800385 
	C897.690918,438.666046 894.238953,444.310760 890.949402,450.906433 
M822.377625,407.038116 
	C820.287292,407.038116 818.196899,407.038116 816.277283,407.038116 
	C816.277283,412.790924 816.253723,417.769257 816.281494,422.747284 
	C816.379028,440.222717 816.197388,457.707458 816.750427,475.168762 
	C816.968384,482.049835 813.840332,485.571533 808.235962,488.176666 
	C804.429993,489.945862 803.795593,494.465393 806.810730,497.380157 
	C808.213623,498.736298 809.811279,499.890991 811.433167,501.229889 
	C816.273010,496.633179 821.119629,492.539459 825.272339,487.833405 
	C826.915955,485.970734 827.697449,482.746948 827.698792,480.142334 
	C827.703796,470.409668 826.974731,460.676483 826.986572,450.944031 
	C827.001953,438.307953 827.525757,425.673187 827.682373,413.036011 
	C827.718262,410.143707 827.947510,406.648956 822.377625,407.038116 
M533.282837,433.428314 
	C533.282837,455.031860 533.282837,476.635376 533.282837,498.752716 
	C534.368896,498.801971 536.319275,499.018829 538.260132,498.953827 
	C543.636780,498.773987 544.758179,497.230743 544.639038,491.907166 
	C544.223877,473.358917 543.926453,454.807556 543.687744,436.256042 
	C543.566528,426.830811 543.666565,417.402710 543.666565,407.481415 
	C540.734314,407.481415 536.866760,407.481415 533.273132,407.481415 
	C533.273132,415.990540 533.273132,424.218201 533.282837,433.428314 
z"/>
<path fill="#E3B262" opacity="1.000000" stroke="none" 
	d="
M510.684814,140.388901 
	C506.980347,126.838837 503.275848,113.288780 499.167633,98.261887 
	C504.367981,100.797958 508.162262,102.616707 511.928528,104.491676 
	C519.524536,108.273239 527.037720,112.230515 534.726318,115.812164 
	C537.724365,117.208763 538.867615,118.933952 538.800232,122.268936 
	C538.591919,132.574890 538.724182,142.887711 538.724182,154.725891 
	C577.916138,129.613159 616.786865,129.183777 656.080994,154.703857 
	C656.080994,143.204498 656.210754,133.097992 656.005859,122.998245 
	C655.940125,119.754379 656.817261,117.941429 659.872986,116.456001 
	C670.044434,111.511490 680.035950,106.197151 690.107178,101.045540 
	C691.526184,100.319649 693.004883,99.710449 695.770020,98.446701 
	C691.908325,112.888802 688.366272,126.135513 684.201782,139.673813 
	C679.099854,142.620850 674.780884,145.609146 670.108276,147.864578 
	C659.363953,153.050781 654.441467,161.015900 657.013062,173.480194 
	C656.995117,180.255035 656.984131,186.562881 656.973145,192.870728 
	C656.968018,199.578033 656.962830,206.285355 656.661194,213.675232 
	C653.915710,218.939255 651.466736,223.520691 648.766113,227.840881 
	C641.882568,205.299789 621.846802,197.797043 603.231018,209.743622 
	C598.669800,212.670746 595.931702,212.400742 591.599121,209.580078 
	C577.895020,200.658325 562.945679,202.488785 553.530457,214.214203 
	C550.287781,218.252502 548.460449,223.427368 545.724854,227.857056 
	C543.031372,223.044250 540.599609,218.457428 538.167908,213.870605 
	C538.101135,207.022018 538.034363,200.173431 537.967407,192.379272 
	C537.971558,185.293396 537.976013,179.153091 537.987244,172.544220 
	C537.995972,167.922424 538.160828,163.759338 537.910461,159.621353 
	C537.824158,158.194641 537.081726,156.302765 535.994019,155.522964 
	C528.598206,150.220718 521.053833,145.123154 513.472168,140.087936 
	C512.873596,139.690445 511.629089,140.265717 510.684814,140.388901 
z"/>
<path fill="#E6E6E6" opacity="1.000000" stroke="none" 
	d="
M635.005188,333.006042 
	C635.810974,337.466461 633.841309,339.819977 629.751770,341.752472 
	C619.996460,346.362274 610.589600,351.706818 600.865723,356.388336 
	C599.003113,357.285065 595.961731,357.270966 594.096924,356.368866 
	C584.081909,351.524170 574.284790,346.231110 564.372437,341.171143 
	C561.296448,339.600952 559.254944,337.584320 560.287109,333.164246 
	C563.023315,319.965149 565.484253,307.422577 567.950928,294.476776 
	C568.909790,289.406647 569.980042,284.760071 570.793396,280.068970 
	C572.932861,267.730530 574.960632,255.372726 577.351807,242.878342 
	C583.650818,239.876556 589.605713,236.963669 595.635010,234.214020 
	C596.686279,233.734589 598.271667,233.466003 599.235657,233.911240 
	C605.545349,236.825623 611.751953,239.963104 617.974121,243.457764 
	C618.969971,250.224823 619.859497,256.584839 621.024658,262.893951 
	C623.257690,274.985291 625.647339,287.047760 627.972290,299.542786 
	C628.314636,302.399261 628.492065,304.872009 629.028320,307.264374 
	C630.955078,315.859619 633.003052,324.427704 635.005188,333.006042 
M593.278137,246.715530 
	C592.641418,246.819901 591.447998,246.931015 591.449158,247.027634 
	C591.481873,249.719864 590.879211,252.804214 592.009705,254.976517 
	C592.906555,256.699829 596.064148,258.343933 598.010742,258.130798 
	C600.175903,257.893707 602.688843,255.894653 603.963196,253.950134 
	C605.074951,252.253784 604.675354,249.567032 605.015442,246.714554 
	C600.988770,246.714554 597.549988,246.714554 593.278137,246.715530 
z"/>
<path fill="#CD9748" opacity="1.000000" stroke="none" 
	d="
M287.210632,417.030396 
	C286.430237,404.776093 286.703979,405.193848 298.058990,407.361481 
	C298.058990,420.464569 298.058990,433.543396 298.058990,448.335022 
	C303.841949,445.807678 308.476593,444.018219 312.831573,441.702759 
	C313.842194,441.165436 314.327576,438.833466 314.323334,437.329376 
	C314.301178,429.507935 314.204926,421.679138 313.816650,413.868713 
	C313.483795,407.172852 313.884766,406.538910 320.296906,406.876587 
	C321.922577,406.962189 323.547546,407.061737 324.839294,407.135742 
	C324.839294,437.738495 324.839294,468.012878 324.839294,498.629700 
	C325.138824,498.459167 324.870361,498.732849 324.578461,498.760681 
	C313.992371,499.771057 313.805328,499.446381 313.986511,488.739929 
	C314.176117,477.537659 314.028931,466.329681 314.028931,453.680023 
	C308.822754,455.783417 304.371307,457.340820 300.196564,459.446838 
	C299.215851,459.941528 298.772369,462.285339 298.757263,463.785309 
	C298.641968,475.243683 298.694031,486.703735 298.694031,498.635132 
	C295.131714,498.635132 291.462189,498.635132 288.265198,498.635132 
	C287.894165,471.279327 287.529572,444.397156 287.210632,417.030396 
z"/>
<path fill="#CD9747" opacity="1.000000" stroke="none" 
	d="
M567.799805,422.458557 
	C567.659668,420.332916 567.524048,418.671997 567.455872,417.008331 
	C567.094910,408.201630 567.100769,408.201385 576.553833,406.146942 
	C581.942810,414.491943 587.420166,422.973877 593.787842,432.834473 
	C593.787842,423.482819 593.787842,415.581635 593.787842,406.960999 
	C597.818420,407.255280 601.178162,407.500580 605.020447,407.781128 
	C604.475403,421.514832 603.873535,434.631683 603.482117,447.754761 
	C603.359863,451.852386 603.846924,455.965607 603.983093,460.074066 
	C604.308594,469.894562 604.471191,479.722015 604.925171,489.536255 
	C605.375183,499.265656 604.619690,500.028595 593.982910,498.413696 
	C593.982910,487.767517 593.981018,477.006836 593.986084,466.246155 
	C593.986572,465.249054 593.880249,464.220673 594.078796,463.259552 
	C597.262695,447.848633 585.910278,438.582275 579.383240,427.278931 
	C578.927673,427.330658 578.472168,427.382416 578.016663,427.434174 
	C578.016663,451.060669 578.016663,474.687195 578.016663,499.007385 
	C574.322693,498.791504 570.812500,498.586365 567.835449,498.412384 
	C567.835449,472.729279 567.835449,447.825684 567.799805,422.458557 
z"/>
<path fill="#CD9747" opacity="1.000000" stroke="none" 
	d="
M719.182251,406.771667 
	C724.896301,412.785950 730.349487,418.556793 735.824463,424.306793 
	C736.137085,424.635162 736.639893,424.776031 737.036072,425.032196 
	C744.295166,429.726440 745.143005,434.046021 740.115845,441.044189 
	C737.881592,444.154419 735.925659,447.589355 733.188843,450.187439 
	C727.762085,455.339050 729.721558,460.527802 732.452393,465.754395 
	C736.739258,473.959076 741.404480,481.970459 745.501953,490.265045 
	C746.123352,491.522980 745.048767,494.337219 743.867432,495.593719 
	C742.218994,497.347076 739.731628,498.311737 736.800232,500.105225 
	C731.156128,487.147369 725.585571,474.358185 719.432678,460.232208 
	C719.432678,469.552277 719.414795,477.376190 719.449890,485.199829 
	C719.455811,486.524933 719.710022,487.847412 719.814087,489.173859 
	C720.608704,499.297363 718.750793,500.088501 708.408203,498.469330 
	C708.408203,492.753662 708.353088,486.986420 708.420471,481.220642 
	C708.534180,471.499542 708.853394,461.779388 708.853455,452.058838 
	C708.853577,438.597504 708.608398,425.136353 708.534058,411.674774 
	C708.513062,407.877899 714.824829,404.806671 719.182251,406.771667 
M727.348572,429.170441 
	C724.801331,426.482819 722.254150,423.795197 718.866150,420.220490 
	C718.866150,431.809906 718.866150,442.036469 718.866150,452.263062 
	C722.862671,448.390900 725.480164,444.121338 728.731934,440.407013 
	C732.376343,436.244171 731.983582,432.940369 727.348572,429.170441 
z"/>
<path fill="#CD9748" opacity="1.000000" stroke="none" 
	d="
M481.023193,478.986206 
	C480.901642,463.009399 480.793427,447.529907 480.642029,432.050873 
	C480.583984,426.118256 480.682098,420.167023 480.227844,414.261261 
	C479.914459,410.186981 480.692352,407.560822 485.193146,406.898163 
	C487.112915,406.615509 488.946960,405.750366 491.537903,404.919739 
	C494.193726,409.975555 496.510437,415.109619 499.465302,419.845551 
	C504.206573,427.444763 509.232208,434.878082 514.407654,442.190430 
	C517.455627,446.496948 517.791565,451.424835 515.735718,455.436951 
	C508.090363,470.357605 499.748138,484.921173 491.579926,499.778046 
	C487.963287,499.049744 484.436188,498.339447 481.019348,497.651367 
	C481.019348,491.425140 481.019348,485.454437 481.023193,478.986206 
M490.913422,453.847778 
	C490.913422,462.905945 490.913422,471.964111 490.913422,481.005768 
	C491.100525,480.852448 491.585205,480.639435 491.774170,480.273651 
	C496.547638,471.032959 501.339661,461.800842 505.961426,452.484344 
	C506.426605,451.546661 506.190491,449.889771 505.663391,448.892487 
	C502.659485,443.208954 499.473389,437.621582 496.339111,432.007172 
	C494.704620,429.079315 493.049500,426.162964 491.403687,423.241425 
	C490.890076,423.384308 490.376495,423.527222 489.862885,423.670105 
	C492.841309,433.411774 487.909882,443.199158 490.913422,453.847778 
z"/>
<path fill="#CD9748" opacity="1.000000" stroke="none" 
	d="
M767.125488,486.018066 
	C763.619873,477.173065 760.284729,468.679932 756.820374,460.239777 
	C754.906311,455.576599 754.765259,451.244415 756.712524,446.336121 
	C761.595703,434.028107 766.032410,421.533661 770.292908,408.993286 
	C771.644836,405.013947 774.591675,406.509338 776.841614,406.410156 
	C778.530151,406.335693 781.334473,407.317566 781.847107,408.566132 
	C787.073975,421.296692 792.217407,434.080475 796.694580,447.086731 
	C797.818054,450.350677 797.341614,454.785736 796.107666,458.132141 
	C791.111938,471.680481 785.533875,485.014099 780.034424,498.767883 
	C777.317078,498.767883 774.202576,498.767883 771.236328,498.767883 
	C769.868042,494.528320 768.554993,490.460175 767.125488,486.018066 
M773.222107,427.772034 
	C772.023926,431.035187 770.619629,434.239990 769.675720,437.575073 
	C768.252319,442.603973 765.290649,448.128998 766.291321,452.722443 
	C768.515137,462.930847 772.791992,472.692047 776.552429,483.561890 
	C780.161194,472.769531 783.433411,463.104736 786.577209,453.398315 
	C786.898682,452.405975 786.663513,451.095276 786.325500,450.048920 
	C783.165161,440.264740 779.925842,430.506042 776.220825,419.256500 
	C774.988159,422.804596 774.250244,424.928711 773.222107,427.772034 
z"/>
<path fill="#CD9748" opacity="1.000000" stroke="none" 
	d="
M458.847534,437.079376 
	C460.166748,440.370148 461.880493,443.211609 462.397034,446.256226 
	C463.012360,449.883392 463.651672,454.070129 462.451294,457.343658 
	C457.369476,471.202118 451.608459,484.811554 445.993164,498.766785 
	C443.200439,498.766785 440.092926,498.766785 437.866425,498.766785 
	C432.803772,485.783875 428.017181,473.274811 423.033997,460.844513 
	C421.028015,455.840729 420.713715,451.239624 422.815125,445.990875 
	C427.674957,433.851990 432.076721,421.517609 436.254761,409.124451 
	C437.691498,404.862732 440.807678,406.849487 443.212250,406.295135 
	C445.340454,405.804504 447.170807,405.874908 448.199249,408.817413 
	C451.477814,418.197174 455.175964,427.430267 458.847534,437.079376 
M446.852203,431.793304 
	C445.323792,428.144073 443.795380,424.494843 442.030273,420.280457 
	C439.545380,427.007874 437.035706,433.085571 435.080414,439.336639 
	C433.669983,443.845795 431.334656,448.981873 432.326202,453.143982 
	C434.720856,463.195587 438.823029,472.840424 442.236786,482.649292 
	C444.224731,478.970551 444.970856,475.246460 446.304413,471.746124 
	C453.367310,453.207550 453.416046,453.227875 447.374115,435.011230 
	C447.114227,434.227692 446.979004,433.402771 446.852203,431.793304 
z"/>
<path fill="#CD9747" opacity="1.000000" stroke="none" 
	d="
M869.399048,446.684601 
	C876.106079,444.983276 877.152649,446.744446 875.158081,457.708191 
	C870.802612,457.708191 866.378052,457.708191 861.363403,457.708191 
	C861.363403,464.723785 861.308167,471.447693 861.376099,478.170380 
	C861.484619,488.920746 862.392212,489.548828 873.320007,487.379425 
	C875.530396,486.940613 877.844910,487.025940 880.058472,486.873291 
	C880.382385,487.825134 880.666748,488.278870 880.673462,488.736694 
	C880.823181,498.914276 880.212341,499.429810 870.067627,498.936890 
	C865.629456,498.721222 861.171631,498.720612 856.728455,498.838928 
	C850.146240,499.014160 849.799194,498.747528 850.021179,491.902222 
	C850.310791,482.970398 850.749451,474.041290 850.891663,465.107300 
	C851.137512,449.661285 851.293518,434.212372 851.277405,418.764862 
	C851.273804,415.345520 850.396790,411.927124 849.812073,407.717102 
	C859.727173,407.717102 868.999939,407.717102 878.625366,407.717102 
	C878.625366,411.026520 878.625366,414.600281 878.625366,418.786224 
	C873.093811,418.534698 867.752258,418.291840 861.176270,417.992859 
	C861.176270,427.620422 861.176270,436.892090 861.176270,446.752594 
	C863.779419,446.752594 866.372437,446.752594 869.399048,446.684601 
z"/>
<path fill="#CD9747" opacity="1.000000" stroke="none" 
	d="
M373.122253,450.276855 
	C372.890259,453.015472 372.688324,455.303619 372.466888,457.812592 
	C367.673401,457.812592 363.234222,457.812592 358.553009,457.812592 
	C358.553009,467.164337 358.440186,476.252228 358.727936,485.327423 
	C358.756622,486.232513 361.223663,487.794891 362.556915,487.792603 
	C367.443939,487.784302 372.330078,487.243774 376.782593,486.933838 
	C377.352234,487.659149 377.534271,487.782806 377.544922,487.919830 
	C378.355804,498.338562 377.192352,499.453094 366.898804,498.936035 
	C361.796875,498.679779 356.664032,498.592438 351.566345,498.848907 
	C347.951385,499.030762 346.809692,497.535339 346.978546,494.231873 
	C347.190826,490.077759 347.365448,485.918213 347.406525,481.759521 
	C347.593140,462.854126 347.737183,443.948242 347.873810,425.042419 
	C347.914124,419.460297 347.880005,413.877655 347.880005,407.643555 
	C356.687408,407.643555 365.860931,407.643555 375.501343,407.643555 
	C375.501343,410.912598 375.501343,414.602875 375.501343,418.820923 
	C369.989502,418.558655 364.641083,418.304199 358.118469,417.993835 
	C358.118469,427.730377 358.118469,437.010712 358.118469,447.031006 
	C361.734802,446.796722 365.182892,446.753052 368.576111,446.299042 
	C371.510132,445.906464 373.092346,446.744080 373.122253,450.276855 
z"/>
<path fill="#CD9747" opacity="1.000000" stroke="none" 
	d="
M669.871521,496.621185 
	C666.155212,497.853790 662.447144,498.631866 658.061646,499.552124 
	C658.061646,496.538513 657.972717,495.083008 658.074951,493.641052 
	C659.730164,470.291412 658.523010,446.905487 658.951111,423.540375 
	C659.002686,420.726105 658.457275,417.906036 658.332336,415.082306 
	C658.072266,409.205322 660.067078,406.627106 665.777649,405.654846 
	C666.674866,405.502106 668.061646,406.005585 668.666565,406.693878 
	C675.986877,415.022888 683.463379,423.238037 690.325073,431.935822 
	C693.309998,435.719513 692.681702,440.567657 689.666321,444.421570 
	C684.023682,451.633392 678.469604,458.976349 672.176392,465.597290 
	C667.437866,470.582642 669.399475,476.540161 668.524475,481.963196 
	C667.791321,486.506500 669.340942,491.418121 669.871521,496.621185 
M680.475769,440.138641 
	C680.574646,438.676544 681.321350,436.752930 680.663696,435.829742 
	C677.245361,431.031097 673.469177,426.487457 668.914673,420.709503 
	C668.914673,432.459656 668.914673,442.777863 668.914673,454.573181 
	C673.360107,449.116516 676.755798,444.948425 680.475769,440.138641 
z"/>
<path fill="#DDDDDD" opacity="1.000000" stroke="none" 
	d="
M537.988770,214.223343 
	C540.599609,218.457428 543.031372,223.044250 545.760925,228.201462 
	C546.708923,230.509354 547.359131,232.246872 547.710693,234.279434 
	C547.298828,234.885773 547.096924,235.193771 547.085205,235.508804 
	C546.485413,251.702133 545.844177,267.894348 545.364197,284.091309 
	C545.266296,287.394836 545.781006,290.716492 546.010498,294.438385 
	C544.665771,299.913208 543.323853,304.979431 541.981873,310.045654 
	C535.598938,297.871582 529.188171,285.711853 522.892090,273.493011 
	C522.443787,272.623016 522.601379,271.255859 522.875549,270.225983 
	C527.817139,251.666290 532.819946,233.122910 537.988770,214.223343 
z"/>
<path fill="#DDDDDD" opacity="1.000000" stroke="none" 
	d="
M649.017761,228.102142 
	C651.466736,223.520691 653.915710,218.939255 656.626465,214.137421 
	C661.248657,229.891373 665.112244,246.025620 670.179443,261.772522 
	C672.709534,269.634949 671.698975,275.941315 667.709534,282.788391 
	C662.614624,291.532806 658.285278,300.723236 653.172607,309.535156 
	C652.143494,306.571716 651.567688,303.794556 651.265503,300.779205 
	C651.359375,295.190979 651.144226,289.841827 651.007019,284.490692 
	C650.651917,270.639801 650.449524,256.783508 649.917175,242.939682 
	C649.776123,239.270798 648.661621,235.639313 648.027100,231.652161 
	C648.379333,230.243134 648.698547,229.172638 649.017761,228.102142 
z"/>
<path fill="#CD9748" opacity="1.000000" stroke="none" 
	d="
M257.480774,440.006714 
	C257.312439,446.978546 256.871552,453.456818 256.990479,459.924774 
	C257.179230,470.188812 257.578583,480.455994 258.203308,490.702637 
	C258.628143,497.670624 256.330994,499.923798 249.345474,498.546844 
	C248.538757,498.387848 247.755173,498.111481 247.188599,497.953156 
	C247.188599,471.247559 247.188599,444.736298 247.188599,418.601990 
	C242.698120,418.225677 238.176346,418.891571 235.027100,417.118988 
	C233.566696,416.296997 234.777802,410.728699 234.777802,407.641968 
	C246.745071,407.641968 258.312103,407.641968 270.440369,407.641968 
	C270.440369,410.931915 270.440369,414.304626 270.440369,418.015015 
	C266.502899,418.015015 262.579590,418.015015 257.459381,418.015015 
	C257.459381,425.166351 257.459381,432.337402 257.480774,440.006714 
z"/>
<path fill="#CD9748" opacity="1.000000" stroke="none" 
	d="
M945.938232,417.871338 
	C934.212036,420.215424 932.853333,418.876404 935.018188,407.653015 
	C946.613892,407.653015 958.174622,407.653015 970.497620,407.653015 
	C970.667664,410.804169 970.849854,414.181274 971.074768,418.350372 
	C967.777954,418.165283 964.989258,418.248444 962.287964,417.802155 
	C957.998352,417.093445 957.053589,419.405457 957.120178,422.900970 
	C957.294495,432.048615 957.471802,441.196167 957.662537,450.343506 
	C957.966248,464.911316 958.354126,479.477905 958.551697,494.047119 
	C958.617554,498.898407 954.664124,498.688354 951.429077,498.830475 
	C949.845337,498.900055 948.228088,498.206421 946.304077,497.788269 
	C946.304077,494.892700 946.260010,492.248077 946.311035,489.605286 
	C946.691284,469.902161 947.167542,450.200378 947.421387,430.495697 
	C947.475159,426.323425 946.737610,422.140991 945.938232,417.871338 
z"/>
<path fill="#CD9747" opacity="1.000000" stroke="none" 
	d="
M890.963135,450.479858 
	C894.238953,444.310760 897.690918,438.666046 900.714294,432.800385 
	C904.334778,425.776215 907.527405,418.532776 911.039124,411.450623 
	C912.112305,409.286102 913.626282,407.340149 914.932373,405.303497 
	C925.467590,411.976624 924.407104,410.365051 919.209717,419.699280 
	C914.146606,428.792542 909.097107,437.904907 903.647278,446.766418 
	C900.968079,451.122955 901.663391,454.610046 904.081543,458.679932 
	C910.698669,469.816986 917.029785,481.123993 923.840515,493.002563 
	C921.068054,495.450653 918.021667,498.140564 914.117859,501.587646 
	C909.940125,492.642761 906.105713,484.348145 902.173096,476.100372 
	C901.552124,474.798004 900.446289,473.734528 899.634460,472.514221 
	C895.244385,465.915161 890.232971,459.559753 890.963135,450.479858 
z"/>
<path fill="#CD9748" opacity="1.000000" stroke="none" 
	d="
M822.817444,407.032654 
	C827.947510,406.648956 827.718262,410.143707 827.682373,413.036011 
	C827.525757,425.673187 827.001953,438.307953 826.986572,450.944031 
	C826.974731,460.676483 827.703796,470.409668 827.698792,480.142334 
	C827.697449,482.746948 826.915955,485.970734 825.272339,487.833405 
	C821.119629,492.539459 816.273010,496.633179 811.433167,501.229889 
	C809.811279,499.890991 808.213623,498.736298 806.810730,497.380157 
	C803.795593,494.465393 804.429993,489.945862 808.235962,488.176666 
	C813.840332,485.571533 816.968384,482.049835 816.750427,475.168762 
	C816.197388,457.707458 816.379028,440.222717 816.281494,422.747284 
	C816.253723,417.769257 816.277283,412.790924 816.277283,407.038116 
	C818.196899,407.038116 820.287292,407.038116 822.817444,407.032654 
z"/>
<path fill="#CD9748" opacity="1.000000" stroke="none" 
	d="
M533.277954,432.937073 
	C533.273132,424.218201 533.273132,415.990540 533.273132,407.481415 
	C536.866760,407.481415 540.734314,407.481415 543.666565,407.481415 
	C543.666565,417.402710 543.566528,426.830811 543.687744,436.256042 
	C543.926453,454.807556 544.223877,473.358917 544.639038,491.907166 
	C544.758179,497.230743 543.636780,498.773987 538.260132,498.953827 
	C536.319275,499.018829 534.368896,498.801971 533.282837,498.752716 
	C533.282837,476.635376 533.282837,455.031860 533.277954,432.937073 
z"/>
<path fill="#E6E6E6" opacity="1.000000" stroke="none" 
	d="
M541.978027,310.433105 
	C543.323853,304.979431 544.665771,299.913208 546.283386,294.187744 
	C548.394226,286.387451 550.229492,279.246429 552.325928,271.832520 
	C554.411499,265.050873 556.236023,258.542145 558.383911,252.023102 
	C559.138855,252.002426 559.570312,251.992065 560.298828,252.277924 
	C560.401001,262.812225 560.217590,273.050537 560.008728,283.288330 
	C559.677307,299.531738 559.328796,315.774780 558.987549,332.017975 
	C553.299744,328.149658 547.457764,324.485382 541.977478,320.342590 
	C538.209167,317.494049 542.171814,314.019196 541.978027,310.433105 
z"/>
<path fill="#E6E6E6" opacity="1.000000" stroke="none" 
	d="
M650.991882,301.017395 
	C651.567688,303.794556 652.143494,306.571716 652.871216,309.702911 
	C655.767639,316.918488 653.868774,321.658752 646.980835,324.779175 
	C643.918701,326.166412 641.373169,328.694153 638.117615,330.455139 
	C637.425720,328.916901 637.063354,327.632996 637.016174,326.337646 
	C636.642944,316.100677 636.279297,305.862793 636.010315,295.622681 
	C635.628296,281.074219 635.329285,266.523590 635.317627,251.984741 
	C636.070862,252.004089 636.501282,252.012604 636.959717,252.416901 
	C639.987305,262.891449 642.986938,272.970215 645.985352,283.456604 
	C647.653381,289.581970 649.322632,295.299683 650.991882,301.017395 
z"/>
<path fill="#D7D6D6" opacity="1.000000" stroke="none" 
	d="
M634.994812,251.973877 
	C635.329285,266.523590 635.628296,281.074219 636.010315,295.622681 
	C636.279297,305.862793 636.642944,316.100677 637.016174,326.337646 
	C637.063354,327.632996 637.425720,328.916901 637.804932,330.586304 
	C637.167908,331.564575 636.368042,332.162659 635.286743,332.883392 
	C633.003052,324.427704 630.955078,315.859619 629.028320,307.264374 
	C628.492065,304.872009 628.314636,302.399261 628.270508,299.231567 
	C628.711609,296.703491 629.011230,294.903931 628.973389,293.111481 
	C628.656189,278.090607 628.277039,263.071045 628.241821,248.165131 
	C630.709595,249.510773 632.852234,250.742325 634.994812,251.973877 
z"/>
<path fill="#D7D6D6" opacity="1.000000" stroke="none" 
	d="
M559.198242,332.133789 
	C559.328796,315.774780 559.677307,299.531738 560.008728,283.288330 
	C560.217590,273.050537 560.401001,262.812225 560.499390,252.005798 
	C562.941040,250.291519 565.479004,249.145584 568.016602,248.468323 
	C567.686829,260.365845 567.253784,271.793182 567.085571,283.224396 
	C567.028442,287.104553 567.639465,290.994537 567.945190,294.880035 
	C565.484253,307.422577 563.023315,319.965149 560.282959,332.751556 
	C559.868408,332.696503 559.670227,332.447906 559.198242,332.133789 
z"/>
<path fill="#E1AA50" opacity="1.000000" stroke="none" 
	d="
M510.729065,140.776672 
	C511.629089,140.265717 512.873596,139.690445 513.472168,140.087936 
	C521.053833,145.123154 528.598206,150.220718 535.994019,155.522964 
	C537.081726,156.302765 537.824158,158.194641 537.910461,159.621353 
	C538.160828,163.759338 537.995972,167.922424 537.622925,172.536041 
	C534.324829,170.987076 531.404785,168.967392 528.469116,166.970840 
	C524.066956,163.977036 519.653748,160.999466 515.245239,158.014999 
	C513.754578,152.398148 512.263977,146.781296 510.729065,140.776672 
z"/>
<path fill="#E1AA50" opacity="1.000000" stroke="none" 
	d="
M657.020081,173.013199 
	C654.441467,161.015900 659.363953,153.050781 670.108276,147.864578 
	C674.780884,145.609146 679.099854,142.620850 683.987793,139.940826 
	C682.980225,145.715607 681.564209,151.514938 679.633057,157.665283 
	C676.195129,160.059326 673.297302,162.139374 670.343628,164.136749 
	C665.923096,167.126083 661.463196,170.057281 657.020081,173.013199 
z"/>
<path fill="#DDA345" opacity="1.000000" stroke="none" 
	d="
M657.013062,173.480194 
	C661.463196,170.057281 665.923096,167.126083 670.343628,164.136749 
	C673.297302,162.139374 676.195129,160.059326 679.471924,158.014267 
	C678.723511,162.661789 677.785706,167.359848 676.436462,171.936584 
	C675.909241,173.724686 674.704468,175.481033 673.382812,176.837280 
	C668.192810,182.163116 662.833313,187.323792 657.254883,192.708252 
	C656.984131,186.562881 656.995117,180.255035 657.013062,173.480194 
z"/>
<path fill="#DDA345" opacity="1.000000" stroke="none" 
	d="
M515.244995,158.399414 
	C519.653748,160.999466 524.066956,163.977036 528.469116,166.970840 
	C531.404785,168.967392 534.324829,170.987076 537.616150,173.004593 
	C537.976013,179.153091 537.971558,185.293396 537.940796,191.939178 
	C532.084106,186.852875 525.796021,181.646194 520.624512,175.500000 
	C518.194397,172.611847 517.887573,167.923477 516.670349,164.034668 
	C516.129028,162.305084 515.716003,160.535339 515.244995,158.399414 
z"/>
<path fill="#EDD8C2" opacity="1.000000" stroke="none" 
	d="
M568.017029,247.999634 
	C565.479004,249.145584 562.941040,250.291519 560.202393,251.709595 
	C559.570312,251.992065 559.138855,252.002426 558.216187,251.719513 
	C555.824158,248.577988 553.923279,245.729706 552.018982,242.513840 
	C550.680115,239.425644 549.344727,236.705017 548.009338,233.984375 
	C547.359131,232.246872 546.708923,230.509354 546.022705,228.427460 
	C548.460449,223.427368 550.287781,218.252502 553.530457,214.214203 
	C562.945679,202.488785 577.895020,200.658325 591.599121,209.580078 
	C595.931702,212.400742 598.669800,212.670746 603.231018,209.743622 
	C621.846802,197.797043 641.882568,205.299789 648.766113,227.840881 
	C648.698547,229.172638 648.379333,230.243134 647.756470,231.849258 
	C646.308228,234.596054 645.163696,236.807236 643.871887,239.334274 
	C641.460327,243.773804 639.195984,247.897461 636.931641,252.021118 
	C636.501282,252.012604 636.070862,252.004089 635.317627,251.984726 
	C632.852234,250.742325 630.709595,249.510773 627.896179,248.123657 
	C624.147644,246.321320 621.069946,244.674530 617.992249,243.027710 
	C611.751953,239.963104 605.545349,236.825623 599.235657,233.911240 
	C598.271667,233.466003 596.686279,233.734589 595.635010,234.214020 
	C589.605713,236.963669 583.650818,239.876556 577.028259,243.009537 
	C573.596191,244.856567 570.806641,246.428101 568.017029,247.999634 
M573.519897,208.994446 
	C561.233337,208.891815 561.974731,208.260315 562.044434,220.640198 
	C562.050049,221.634109 561.758179,222.777084 562.148254,223.589874 
	C562.891968,225.139526 563.703613,227.055923 565.056152,227.846664 
	C571.884155,231.838638 583.288025,227.106537 585.550293,219.564270 
	C587.843201,211.919708 585.745972,208.999756 577.958618,208.994583 
	C576.798828,208.993820 575.638977,208.994461 573.519897,208.994446 
M626.557129,223.013748 
	C626.935608,220.615143 628.054565,217.991959 627.420227,215.900589 
	C627.027649,214.606033 623.840576,213.258652 622.145203,213.513489 
	C620.457214,213.767212 618.371460,215.741333 617.757019,217.432343 
	C617.236145,218.865906 618.039856,221.923096 619.196899,222.562988 
	C621.048889,223.587250 623.678406,223.205597 626.557129,223.013748 
z"/>
<path fill="#ABABAB" opacity="1.000000" stroke="none" 
	d="
M617.974121,243.457764 
	C621.069946,244.674530 624.147644,246.321320 627.570923,248.009583 
	C628.277039,263.071045 628.656189,278.090607 628.973389,293.111481 
	C629.011230,294.903931 628.711609,296.703491 628.270203,298.810974 
	C625.647339,287.047760 623.257690,274.985291 621.024658,262.893951 
	C619.859497,256.584839 618.969971,250.224823 617.974121,243.457764 
z"/>
<path fill="#ABABAB" opacity="1.000000" stroke="none" 
	d="
M568.016602,248.468323 
	C570.806641,246.428101 573.596191,244.856567 576.709351,243.153824 
	C574.960632,255.372726 572.932861,267.730530 570.793396,280.068970 
	C569.980042,284.760071 568.909790,289.406647 567.950928,294.476776 
	C567.639465,290.994537 567.028442,287.104553 567.085571,283.224396 
	C567.253784,271.793182 567.686829,260.365845 568.016602,248.468323 
z"/>
<path fill="#3A3A3A" opacity="1.000000" stroke="none" 
	d="
M593.694641,246.715042 
	C597.549988,246.714554 600.988770,246.714554 605.015442,246.714554 
	C604.675354,249.567032 605.074951,252.253784 603.963196,253.950134 
	C602.688843,255.894653 600.175903,257.893707 598.010742,258.130798 
	C596.064148,258.343933 592.906555,256.699829 592.009705,254.976517 
	C590.879211,252.804214 591.481873,249.719864 591.449158,247.027634 
	C591.447998,246.931015 592.641418,246.819901 593.694641,246.715042 
z"/>
<path fill="#FDFCFA" opacity="1.000000" stroke="none" 
	d="
M727.591064,429.429871 
	C731.983582,432.940369 732.376343,436.244171 728.731934,440.407013 
	C725.480164,444.121338 722.862671,448.390900 718.866150,452.263062 
	C718.866150,442.036469 718.866150,431.809906 718.866150,420.220490 
	C722.254150,423.795197 724.801331,426.482819 727.591064,429.429871 
z"/>
<path fill="#FDFCFA" opacity="1.000000" stroke="none" 
	d="
M490.917542,453.394196 
	C487.909882,443.199158 492.841309,433.411774 489.862885,423.670105 
	C490.376495,423.527222 490.890076,423.384308 491.403687,423.241425 
	C493.049500,426.162964 494.704620,429.079315 496.339111,432.007172 
	C499.473389,437.621582 502.659485,443.208954 505.663391,448.892487 
	C506.190491,449.889771 506.426605,451.546661 505.961426,452.484344 
	C501.339661,461.800842 496.547638,471.032959 491.774170,480.273651 
	C491.585205,480.639435 491.100525,480.852448 490.913422,481.005768 
	C490.913422,471.964111 490.913422,462.905945 490.917542,453.394196 
z"/>
<path fill="#FDFCFA" opacity="1.000000" stroke="none" 
	d="
M773.367188,427.412415 
	C774.250244,424.928711 774.988159,422.804596 776.220825,419.256500 
	C779.925842,430.506042 783.165161,440.264740 786.325500,450.048920 
	C786.663513,451.095276 786.898682,452.405975 786.577209,453.398315 
	C783.433411,463.104736 780.161194,472.769531 776.552429,483.561890 
	C772.791992,472.692047 768.515137,462.930847 766.291321,452.722443 
	C765.290649,448.128998 768.252319,442.603973 769.675720,437.575073 
	C770.619629,434.239990 772.023926,431.035187 773.367188,427.412415 
z"/>
<path fill="#FDFCFA" opacity="1.000000" stroke="none" 
	d="
M446.818970,432.195190 
	C446.979004,433.402771 447.114227,434.227692 447.374115,435.011230 
	C453.416046,453.227875 453.367310,453.207550 446.304413,471.746124 
	C444.970856,475.246460 444.224731,478.970551 442.236786,482.649292 
	C438.823029,472.840424 434.720856,463.195587 432.326202,453.143982 
	C431.334656,448.981873 433.669983,443.845795 435.080414,439.336639 
	C437.035706,433.085571 439.545380,427.007874 442.030273,420.280457 
	C443.795380,424.494843 445.323792,428.144073 446.818970,432.195190 
z"/>
<path fill="#FDFCFA" opacity="1.000000" stroke="none" 
	d="
M680.313599,440.459503 
	C676.755798,444.948425 673.360107,449.116516 668.914673,454.573181 
	C668.914673,442.777863 668.914673,432.459656 668.914673,420.709503 
	C673.469177,426.487457 677.245361,431.031097 680.663696,435.829742 
	C681.321350,436.752930 680.574646,438.676544 680.313599,440.459503 
z"/>
<path fill="#D1D1D1" opacity="1.000000" stroke="none" 
	d="
M547.710693,234.279434 
	C549.344727,236.705017 550.680115,239.425644 552.007812,242.961899 
	C551.663452,251.667099 551.259949,259.554871 551.047668,267.447815 
	C551.006165,268.990082 551.706543,270.552368 552.064758,272.105408 
	C550.229492,279.246429 548.394226,286.387451 546.286133,293.779114 
	C545.781006,290.716492 545.266296,287.394836 545.364197,284.091309 
	C545.844177,267.894348 546.485413,251.702133 547.085205,235.508804 
	C547.096924,235.193771 547.298828,234.885773 547.710693,234.279434 
z"/>
<path fill="#D1D1D1" opacity="1.000000" stroke="none" 
	d="
M644.019165,239.018402 
	C645.163696,236.807236 646.308228,234.596054 647.723389,232.187775 
	C648.661621,235.639313 649.776123,239.270798 649.917175,242.939682 
	C650.449524,256.783508 650.651917,270.639801 651.007019,284.490692 
	C651.144226,289.841827 651.359375,295.190979 651.265503,300.779205 
	C649.322632,295.299683 647.653381,289.581970 646.182312,283.161804 
	C646.795288,281.805847 647.592346,281.137787 647.568176,280.500916 
	C647.101868,268.225342 646.603088,255.949860 645.918579,243.685104 
	C645.830017,242.099152 644.678345,240.572525 644.019165,239.018402 
z"/>
<path fill="#C1C1C1" opacity="1.000000" stroke="none" 
	d="
M552.325928,271.832520 
	C551.706543,270.552368 551.006165,268.990082 551.047668,267.447815 
	C551.259949,259.554871 551.663452,251.667099 552.011230,243.329468 
	C553.923279,245.729706 555.824158,248.577988 557.892700,251.729858 
	C556.236023,258.542145 554.411499,265.050873 552.325928,271.832520 
z"/>
<path fill="#C1C1C1" opacity="1.000000" stroke="none" 
	d="
M643.871887,239.334290 
	C644.678345,240.572525 645.830017,242.099152 645.918579,243.685104 
	C646.603088,255.949860 647.101868,268.225342 647.568176,280.500916 
	C647.592346,281.137787 646.795288,281.805847 646.183594,282.754181 
	C642.986938,272.970215 639.987305,262.891449 636.959717,252.416901 
	C639.195984,247.897461 641.460327,243.773804 643.871887,239.334290 
z"/>
<path fill="#A9854A" opacity="1.000000" stroke="none" 
	d="
M573.999512,208.994446 
	C575.638977,208.994461 576.798828,208.993820 577.958618,208.994583 
	C585.745972,208.999756 587.843201,211.919708 585.550293,219.564270 
	C583.288025,227.106537 571.884155,231.838638 565.056152,227.846664 
	C563.703613,227.055923 562.891968,225.139526 562.148254,223.589874 
	C561.758179,222.777084 562.050049,221.634109 562.044434,220.640198 
	C561.974731,208.260315 561.233337,208.891815 573.999512,208.994446 
z"/>
<path fill="#3A3A3A" opacity="1.000000" stroke="none" 
	d="
M626.268188,223.215988 
	C623.678406,223.205597 621.048889,223.587250 619.196899,222.562988 
	C618.039856,221.923096 617.236145,218.865906 617.757019,217.432343 
	C618.371460,215.741333 620.457214,213.767212 622.145203,213.513489 
	C623.840576,213.258652 627.027649,214.606033 627.420227,215.900589 
	C628.054565,217.991959 626.935608,220.615143 626.268188,223.215988 
z"/>
</svg>