<?xml version="1.0" encoding="utf-8"?>
<svg id="master-artboard" viewBox="0 0 600 600" version="1.1" xmlns="http://www.w3.org/2000/svg" x="0px" y="0px" style="enable-background:new 0 0 1400 980;" width="600px" height="600px"><defs><clipPath id="clipPath18" clipPathUnits="userSpaceOnUse"><path id="path16" d="M 0,220.245 H 841.89 V 0 H 0 Z"/></clipPath><style id="ee-google-fonts">@import url(https://fonts.googleapis.com/css?family=Montserrat:400,700);</style><clipPath id="path-1" clipPathUnits="userSpaceOnUse"><path id="path-2" d="M 0,220.245 H 841.89 V 0 H 0 Z"/></clipPath><clipPath id="path-3" clipPathUnits="userSpaceOnUse"><path id="path-4" d="M 0,220.245 H 841.89 V 0 H 0 Z"/></clipPath><path id="A" d="M44.5 20H24v8.5h11.8C34.7 33.9 30.1 37 24 37c-7.2 0-13-5.8-13-13s5.8-13 13-13c3.1 0 5.9 1.1 8.1 2.9l6.4-6.4C34.6 4.1 29.6 2 24 2 11.8 2 2 11.8 2 24s9.8 22 22 22c11 0 21-8 21-22 0-1.3-.2-2.7-.5-4z"/></defs><rect id="ee-background" x="0" y="0" width="600" height="600" style="fill: white; fill-opacity: 0; pointer-events: none;"/><metadata id="metadata8"/><metadata id="metadata-1"/><metadata id="metadata-2"/><rect id="rect-1" x="0" y="0" width="600" height="600" style="fill: white; fill-opacity: 0; pointer-events: none;" transform="matrix(1, 0, 0, 1, -0.000025556533728376962, 0)"/><path d="M 29.045 27.122 A 1.26 1.243 0 0 1 27.785 28.365 A 1.26 1.243 0 0 1 26.525 27.122 A 1.26 1.243 0 0 1 27.785 25.879 A 1.26 1.243 0 0 1 29.045 27.122 Z" fill="#353535" transform="matrix(8.540951304423515, 0, 0, 8.540951304423515, 112.72681689912861, 50.25833481903828)" style="fill: rgb(13, 13, 13);"/><path fill="#A78347" fill-rule="evenodd" d="M19.446 25.71a.792.792 0 0 0-.797-.787h-3.757a.791.791 0 0 0-.796.786v2.434c0 .65.534 1.178 1.194 1.178h1.368c.74 0 1.448-.29 1.971-.806a2.73 2.73 0 0 0 .817-1.944v-.862Z" clip-rule="evenodd" transform="matrix(8.540951304423515, 0, 0, 8.540951304423515, 112.72681689912861, 50.25833481903828)" style="fill: rgb(13, 13, 13);"/><path fill="#E3B261" fill-rule="evenodd" d="M35 4.53 43.852 0 39 18l-4 4V4.53ZM8.851 4.53.001 0l4.85 18 4 4V4.53Z" clip-rule="evenodd" transform="matrix(8.540951304423515, 0, 0, 8.540951304423515, 112.72681689912861, 50.25833481903828)" style="fill: rgb(152, 152, 152);"/><path fill="#E3B261" fill-rule="evenodd" d="M35.442 12.744s-6.688-4.398-13.376-4.398-13.377 4.398-13.377 4.398v13.193l1.784 3.519c1.28-4.863 7.071-6.889 11.103-3.884l.49.365.49-.365c4.031-3.005 9.823-.98 11.102 3.884l1.784-3.519V12.744Z" clip-rule="evenodd" transform="matrix(8.540951304423515, 0, 0, 8.540951304423515, 112.72681689912861, 50.25833481903828)" style="fill: rgb(152, 152, 152);"/><path fill="#D4D4D4" fill-rule="evenodd" d="m17.607 32.534-3.567 20.67-4.919-3.518 4.027-14.953 4.459-2.199Z" clip-rule="evenodd" transform="matrix(8.540951304423515, 0, 0, 8.540951304423515, 112.72681689912861, 50.25833481903828)"/><path fill="#D5D5D5" fill-rule="evenodd" d="m26.524 32.534 3.567 20.67 4.919-3.518-4.027-14.953-4.459-2.199Z" clip-rule="evenodd" transform="matrix(8.540951304423515, 0, 0, 8.540951304423515, 112.72681689912861, 50.25833481903828)"/><path fill="#E6E6E6" fill-rule="evenodd" d="M8.69 25.937 5.121 39.131l4.46 8.796 3.566-13.194-4.459-8.796ZM35.442 25.937l3.567 13.194-4.459 8.796-3.567-13.194 4.459-8.796ZM17.607 32.534l-4.013 21.55 8.472 4.397 8.471-4.397-4.013-21.55-4.126-2.035-.332-.164-4.46 2.2Z" clip-rule="evenodd" transform="matrix(8.540951304423515, 0, 0, 8.540951304423515, 112.72681689912861, 50.25833481903828)"/><path fill="#353535" fill-rule="evenodd" d="M23.664 33.414h-3.122v1.1c0 .408.165.8.457 1.088.293.288.69.45 1.103.45h.002c.414 0 .81-.162 1.103-.45.292-.289.457-.68.457-1.088v-1.1Z" clip-rule="evenodd" transform="matrix(8.540951304423515, 0, 0, 8.540951304423515, 112.72681689912861, 50.25833481903828)" style="fill: rgb(13, 13, 13);"/></svg>