<?xml version="1.0" encoding="utf-8"?>
<svg id="master-artboard" viewBox="0 0 600 600" xmlns="http://www.w3.org/2000/svg" width="600px" height="600px" version="1.1" style="shape-rendering:geometricPrecision; text-rendering:geometricPrecision; image-rendering:optimizeQuality; fill-rule:evenodd; clip-rule:evenodd"><rect id="ee-background" x="0" y="0" width="600" height="600" style="fill: white; fill-opacity: 0; pointer-events: none;"/><rect id="rect-1" x="0" y="0" width="600" height="600" style="fill: white; fill-opacity: 0; pointer-events: none;" transform="matrix(0.999999761581421, 0, 0, 0.999999761581421, -0.00002555659727931925, 0)"/><g transform="matrix(5.050487518310547, 0, 0, 5.050487518310547, 31.4129695892334, 240.22930908203125)"><title>Scrimba</title><path d="M24 6.222a2.222 2.222 0 01-2.222 2.222h-8.89a2.222 2.222 0 010-4.444h8.89C23.005 4 24 4.995 24 6.222zm-7.333 9.334h-8.89a2.222 2.222 0 000 4.444h8.89a2.222 2.222 0 000-4.444zm0-5.778H13.11a2.222 2.222 0 000 4.444h3.556a2.222 2.222 0 000-4.444zM2.222 15.556a2.222 2.222 0 100 4.444 2.222 2.222 0 000-4.444z" style="fill: rgb(51, 51, 51);"/></g><path d="M 260.993896484375 268.45001220703125 C 261.02056884765625 269.54998779296875 261.82720947265625 270.1000061035156 263.41387939453125 270.1000061035156 C 264.02056884765625 270.1000061035156 264.52056884765625 269.9700012207031 264.91387939453125 269.7099914550781 C 265.3072204589844 269.4433288574219 265.5038757324219 269.1333312988281 265.5038757324219 268.7799987792969 C 265.5038757324219 268.4333190917969 265.3838806152344 268.163330078125 265.1438903808594 267.9700012207031 C 264.9039001464844 267.77667236328125 264.5272216796875 267.6000061035156 264.0138854980469 267.44000244140625 L 261.473876953125 266.5299987792969 C 259.58056640625 265.8699951171875 258.6338806152344 264.7966613769531 258.6338806152344 263.30999755859375 C 258.6338806152344 262.3166809082031 259.08056640625 261.5199890136719 259.973876953125 260.9200134277344 C 260.8605651855469 260.32000732421875 262.0505676269531 260.0199890136719 263.54388427734375 260.0199890136719 C 265.04388427734375 260.0199890136719 266.1972351074219 260.3500061035156 267.0038757324219 261.010009765625 C 267.810546875 261.663330078125 268.2305603027344 262.4866638183594 268.2638854980469 263.4800109863281 L 265.5939025878906 263.4800109863281 C 265.5672302246094 263.09332275390625 265.3838806152344 262.7900085449219 265.04388427734375 262.57000732421875 C 264.7105712890625 262.34332275390625 264.2305603027344 262.2300109863281 263.6038818359375 262.2300109863281 C 262.98388671875 262.2300109863281 262.50054931640625 262.35333251953125 262.1539001464844 262.6000061035156 C 261.8072204589844 262.85333251953125 261.6338806152344 263.1400146484375 261.6338806152344 263.4599914550781 C 261.6338806152344 264.0199890136719 262.1072082519531 264.4333190917969 263.05389404296875 264.70001220703125 L 265.81390380859375 265.739990234375 C 266.72723388671875 266.0400085449219 267.4272155761719 266.4266662597656 267.91387939453125 266.8999938964844 C 268.4005432128906 267.3733215332031 268.6438903808594 267.9866638183594 268.6438903808594 268.739990234375 C 268.6438903808594 269.70001220703125 268.1872253417969 270.5299987792969 267.2738952636719 271.2300109863281 C 266.3338928222656 271.9700012207031 265.08721923828125 272.3399963378906 263.53387451171875 272.3399963378906 C 261.9805603027344 272.3399963378906 260.73388671875 272 259.79388427734375 271.32000732421875 C 258.84722900390625 270.6400146484375 258.3672180175781 269.6833190917969 258.3538818359375 268.45001220703125 L 260.993896484375 268.45001220703125 ZM 276.48583984375 260.0199890136719 C 277.225830078125 260.0199890136719 277.8858337402344 260.14666748046875 278.4658203125 260.3999938964844 C 279.052490234375 260.64666748046875 279.54583740234375 260.9700012207031 279.9458312988281 261.3699951171875 C 280.7458190917969 262.13665771484375 281.2158203125 263.10333251953125 281.3558349609375 264.2699890136719 L 278.5058288574219 264.3399963378906 C 278.379150390625 263.8333435058594 278.1424865722656 263.4100036621094 277.79583740234375 263.07000732421875 C 277.44915771484375 262.7366638183594 277.052490234375 262.57000732421875 276.6058349609375 262.57000732421875 C 276.1591491699219 262.57000732421875 275.77581787109375 262.63665771484375 275.4558410644531 262.7699890136719 C 275.1358337402344 262.9100036621094 274.8558349609375 263.1233215332031 274.6158142089844 263.4100036621094 C 274.06915283203125 264.0833435058594 273.79583740234375 265.010009765625 273.79583740234375 266.19000244140625 C 273.79583740234375 267.3766784667969 274.052490234375 268.2699890136719 274.5658264160156 268.8699951171875 C 275.07916259765625 269.4700012207031 275.69915771484375 269.7699890136719 276.4258117675781 269.7699890136719 C 277.1524963378906 269.7699890136719 277.6824951171875 269.5966796875 278.0158386230469 269.25 C 278.3424987792969 268.9100036621094 278.5058288574219 268.4433288574219 278.5058288574219 267.8500061035156 L 281.3558349609375 267.8500061035156 C 281.3558349609375 269.1300048828125 280.9324951171875 270.1933288574219 280.0858154296875 271.0400085449219 C 279.225830078125 271.90667724609375 278.0191650390625 272.3399963378906 276.4658203125 272.3399963378906 C 274.9258117675781 272.3399963378906 273.6358337402344 271.7799987792969 272.5958251953125 270.6600036621094 C 271.4958190917969 269.4599914550781 270.9458312988281 267.96331787109375 270.9458312988281 266.1700134277344 C 270.9458312988281 264.2833251953125 271.4958190917969 262.7699890136719 272.5958251953125 261.6300048828125 C 273.6358337402344 260.5566711425781 274.9324951171875 260.0199890136719 276.48583984375 260.0199890136719 ZM 287.6015319824219 262.6400146484375 C 288.3081970214844 260.9599914550781 289.3648681640625 260.1199951171875 290.77154541015625 260.1199951171875 C 291.04486083984375 260.1199951171875 291.3882141113281 260.1766662597656 291.8015441894531 260.2900085449219 L 291.76153564453125 263.1199951171875 C 291.3081970214844 263.02667236328125 290.8681945800781 262.9800109863281 290.4415283203125 262.9800109863281 C 288.5481872558594 262.9800109863281 287.6015319824219 264.2833251953125 287.6015319824219 266.8900146484375 L 287.6015319824219 272 L 284.77154541015625 272 L 284.77154541015625 260.30999755859375 L 287.6015319824219 260.30999755859375 L 287.6015319824219 262.6400146484375 ZM 294.99383544921875 260.30999755859375 L 297.8238220214844 260.30999755859375 L 297.8238220214844 272 L 294.99383544921875 272 L 294.99383544921875 260.30999755859375 M 294.6638488769531 256.57000732421875 C 294.6638488769531 256.0566711425781 294.8138427734375 255.65333557128906 295.11383056640625 255.36000061035156 C 295.4205017089844 255.05999755859375 295.85382080078125 254.91000366210938 296.4138488769531 254.91000366210938 C 296.9538269042969 254.91000366210938 297.3804931640625 255.05999755859375 297.69384765625 255.36000061035156 C 298.0071716308594 255.65333557128906 298.1638488769531 256.0566711425781 298.1638488769531 256.57000732421875 C 298.1638488769531 257.0833435058594 298.0071716308594 257.4866638183594 297.69384765625 257.7799987792969 C 297.3804931640625 258.0733337402344 296.9538269042969 258.2200012207031 296.4138488769531 258.2200012207031 C 295.85382080078125 258.2200012207031 295.4205017089844 258.0733337402344 295.11383056640625 257.7799987792969 C 294.8138427734375 257.4866638183594 294.6638488769531 257.0833435058594 294.6638488769531 256.57000732421875 ZM 312.99102783203125 262.5400085449219 C 313.7443542480469 260.8599853515625 315.0643615722656 260.0199890136719 316.9510192871094 260.0199890136719 C 318.3443603515625 260.0199890136719 319.4243469238281 260.49334716796875 320.1910095214844 261.44000244140625 C 320.9243469238281 262.3333435058594 321.291015625 263.5799865722656 321.291015625 265.17999267578125 L 321.291015625 272 L 318.4410095214844 272 L 318.4410095214844 265.17999267578125 C 318.4410095214844 264.32000732421875 318.23101806640625 263.6700134277344 317.81103515625 263.2300109863281 C 317.3976745605469 262.7900085449219 316.8143615722656 262.57000732421875 316.06103515625 262.57000732421875 C 315.30767822265625 262.57000732421875 314.6910095214844 262.89666748046875 314.2110290527344 263.54998779296875 C 313.73101806640625 264.2099914550781 313.4776916503906 265.2033386230469 313.4510192871094 266.5299987792969 L 313.4510192871094 272 L 310.61102294921875 272 L 310.61102294921875 265.17999267578125 C 310.61102294921875 264.32000732421875 310.40435791015625 263.6700134277344 309.99102783203125 263.2300109863281 C 309.57769775390625 262.7900085449219 308.9943542480469 262.57000732421875 308.24102783203125 262.57000732421875 C 307.4877014160156 262.57000732421875 306.8443603515625 262.90667724609375 306.31103515625 263.5799865722656 C 305.7710266113281 264.2466735839844 305.4843444824219 265.2533264160156 305.4510192871094 266.6000061035156 L 305.4510192871094 272 L 302.62103271484375 272 L 302.62103271484375 260.3399963378906 L 305.0910339355469 260.3399963378906 L 305.4110107421875 262.3500061035156 C 306.17767333984375 260.7966613769531 307.4076843261719 260.0199890136719 309.10101318359375 260.0199890136719 C 310.0810241699219 260.0199890136719 310.89434814453125 260.2466735839844 311.541015625 260.70001220703125 C 312.18768310546875 261.14666748046875 312.6710205078125 261.760009765625 312.99102783203125 262.5400085449219 ZM 335.2088317871094 261.70001220703125 C 335.2088317871094 261.70001220703125 335.4521484375 261.9800109863281 335.9388122558594 262.5400085449219 C 336.4321594238281 263.1000061035156 336.6788330078125 264.2933349609375 336.6788330078125 266.1199951171875 C 336.6788330078125 267.9466552734375 336.1588134765625 269.45001220703125 335.11883544921875 270.6300048828125 C 334.1121520996094 271.7699890136719 332.8554992675781 272.3399963378906 331.34881591796875 272.3399963378906 C 330.6288146972656 272.3399963378906 329.96881103515625 272.14666748046875 329.36883544921875 271.760009765625 C 328.7688293457031 271.3733215332031 328.2955017089844 270.7799987792969 327.9488220214844 269.9800109863281 L 327.2488098144531 272 L 325.3988342285156 272 L 325.3988342285156 255.54000854492188 L 328.22882080078125 255.54000854492188 L 328.22882080078125 261.79998779296875 C 328.96881103515625 260.61334228515625 330.0688171386719 260.0199890136719 331.52880859375 260.0199890136719 C 332.9954833984375 260.0199890136719 334.22216796875 260.5799865722656 335.2088317871094 261.70001220703125 M 328.22882080078125 265.45001220703125 L 328.22882080078125 266.9800109863281 C 328.26214599609375 267.79998779296875 328.558837890625 268.47332763671875 329.11883544921875 269 C 329.6454772949219 269.5133361816406 330.288818359375 269.7699890136719 331.048828125 269.7699890136719 C 331.808837890625 269.7699890136719 332.462158203125 269.4366760253906 333.0088195800781 268.7699890136719 C 333.55548095703125 268.1099853515625 333.8288269042969 267.23333740234375 333.8288269042969 266.1400146484375 C 333.8288269042969 265.0533447265625 333.558837890625 264.1866760253906 333.0188293457031 263.5400085449219 C 332.4855041503906 262.8933410644531 331.8188171386719 262.57000732421875 331.0188293457031 262.57000732421875 C 330.21881103515625 262.57000732421875 329.55548095703125 262.8333435058594 329.02880859375 263.3599853515625 C 328.4954833984375 263.88665771484375 328.22882080078125 264.5833435058594 328.22882080078125 265.45001220703125 ZM 343.9749450683594 265.17999267578125 C 344.901611328125 265.17999267578125 345.9749450683594 265.3333435058594 347.1949462890625 265.6400146484375 L 347.1949462890625 264.489990234375 C 347.1949462890625 263.6700134277344 347.0316162109375 263.0666809082031 346.7049255371094 262.67999267578125 C 346.3716125488281 262.28668212890625 345.8349304199219 262.0899963378906 345.0949401855469 262.0899963378906 C 344.3482666015625 262.0899963378906 343.7749328613281 262.2366638183594 343.37493896484375 262.5299987792969 C 342.9749450683594 262.8299865722656 342.7749328613281 263.25 342.7749328613281 263.7900085449219 L 339.6849365234375 263.7900085449219 C 339.6849365234375 262.46331787109375 340.151611328125 261.5033264160156 341.0849304199219 260.9100036621094 C 342.0182800292969 260.3166809082031 343.324951171875 260.0199890136719 345.00494384765625 260.0199890136719 C 347.4049377441406 260.0199890136719 348.9582824707031 260.8599853515625 349.6649475097656 262.5400085449219 C 349.9049377441406 263.1199951171875 350.0249328613281 263.79998779296875 350.0249328613281 264.5799865722656 L 350.0249328613281 272 L 347.554931640625 272 L 347.3349304199219 270.44000244140625 C 346.58160400390625 271.7066650390625 345.4316101074219 272.3399963378906 343.88494873046875 272.3399963378906 C 342.3782653808594 272.3399963378906 341.2082824707031 271.9700012207031 340.37493896484375 271.2300109863281 C 339.6082763671875 270.5299987792969 339.2249450683594 269.6400146484375 339.2249450683594 268.55999755859375 C 339.2249450683594 267.4800109863281 339.6482849121094 266.64666748046875 340.49493408203125 266.05999755859375 C 341.34161376953125 265.47332763671875 342.5016174316406 265.17999267578125 343.9749450683594 265.17999267578125 M 347.1949462890625 267.44000244140625 C 346.2482604980469 267.1866760253906 345.3682861328125 267.05999755859375 344.554931640625 267.05999755859375 C 343.0149230957031 267.05999755859375 342.24493408203125 267.57000732421875 342.24493408203125 268.5899963378906 C 342.24493408203125 269.0233459472656 342.4216003417969 269.39666748046875 342.7749328613281 269.7099914550781 C 343.1282653808594 270.0233459472656 343.69158935546875 270.17999267578125 344.4649353027344 270.17999267578125 C 345.24493408203125 270.17999267578125 345.88494873046875 269.9200134277344 346.38494873046875 269.3999938964844 C 346.8916015625 268.8800048828125 347.1615905761719 268.2266540527344 347.1949462890625 267.44000244140625 Z" transform="matrix(4.13605260848999, 0, 0, 4.13605260848999, -885.0911254882812, -789.53173828125)" style="fill: rgb(51, 51, 51); white-space: pre; color: rgb(51, 51, 51);"/></svg>